<svg width="16" height="16" viewBox="0 0 16 16" fill="none" xmlns="http://www.w3.org/2000/svg">
<mask id="path-1-inside-1_407_140" fill="white">
<path d="M8.78479 15.9688L8.65095 15.9896L8.49278 16H8.10342L7.92091 15.9896L7.55589 15.9479L7.22738 15.8854L6.92319 15.8229L6.63118 15.7396L6.35133 15.6562L6.10798 15.5833L5.8403 15.4896L5.47529 15.3646L5.18327 15.2604L4.84259 15.1354L4.5749 15.0417L4.34373 14.9479L4.02738 14.8229L3.71103 14.6979L3.22433 14.4896L2.92015 14.3542L2.6403 14.2396L2.36046 14.1042L2.12928 13.9792L1.9346 13.8854L1.72776 13.7604L1.55741 13.6562L1.41141 13.5521L1.2654 13.4479L1.14373 13.3542L0.973384 13.2122L0.839544 13.0729L0.693536 12.9062L0.547529 12.6979L0.377186 12.3854L0.243346 12.0312L0.170342 11.7812L0.0973384 11.5208L0.0486692 11.2292L0.0121673 10.9792L0 10.7292V10.4896V10.1979L0.0243346 9.96875L0.0486692 9.75L0.0730038 9.5625L0.146008 9.26042L0.243346 8.94792L0.31635 8.6875L0.498859 8.19792L0.644867 7.85417L0.76654 7.58333L0.888213 7.3125L1.04639 6.97917L1.10722 6.85417V6.83333L1.04639 6.5L0.924715 5.75L0.851711 5.22917L0.778707 4.70833L0.730038 4.29167L0.681369 3.94792L0.657034 3.61458L0.644867 3.33333L0.6327 2.97917L0.608365 2.55208L0.58403 2.27083L0.571863 1.95833V1.60417L0.559696 1.33333L0.571863 1.0625L0.58403 0.854167L0.596198 0.583333L0.620532 0.354167L0.644867 0.239583L0.657034 0.15625L0.717871 0.0729167L0.803042 0H0.827376H0.876046L0.924715 0.0208333L0.997719 0.0833333L1.16806 0.260417L1.2654 0.375L1.27757 0.416667L1.8616 1.25L2.27529 1.85417L2.46996 2.13542L2.71331 2.48958L3.09049 2.98958L3.57719 3.65625L3.82053 3.94792L3.97871 4.15625L4.25855 4.5L4.40456 4.67708L4.5384 4.83333L4.59924 4.92708L4.62357 4.91667L4.85475 4.84375L5.14677 4.78125L5.48745 4.70833L5.86464 4.65625L6.24183 4.60417L6.50951 4.58333L6.78935 4.5625L7.08137 4.54167L7.39772 4.53125L7.7019 4.52083H8.16426L8.45627 4.53125H8.73612L9.05247 4.55208L9.28365 4.57292L9.62434 4.61458L9.91635 4.65625L10.257 4.71875L10.6342 4.80208L11.3034 4.41667L12.0943 3.94792L12.289 3.82292L12.4958 3.69792L12.6418 3.59375L12.8243 3.46875L13.2015 3.19792L14.7103 1.95833L15.5985 1.14583L15.635 1.10417L15.6593 1.09375H15.6837H15.7202H15.7688L15.8053 1.11458L15.854 1.16667L15.9027 1.29167L15.9392 1.45833L15.9635 1.64583L15.9878 2.08333L16 2.52083L15.9635 2.82292V3L15.9392 3.16667L15.8783 3.44792L15.8175 3.73958L15.7567 3.97917L15.6837 4.25L15.6106 4.51042L15.5376 4.73958L15.4281 5.02083L15.2335 5.52083L15.1118 5.8125L14.9779 6.125L14.8806 6.35417L14.7589 6.64583L14.6738 6.84375L14.6616 6.89583V6.9375L14.6738 7.05208L14.7224 7.20833L14.9049 7.625L15.0753 8.07292L15.2213 8.51042L15.3551 8.98958L15.416 9.27083L15.4768 9.55208L15.5133 9.82292L15.562 10.1042L15.5985 10.3646L15.6106 10.5417L15.635 10.6667V10.7604V11.2708L15.6228 11.4062L15.6106 11.5521L15.5863 11.7188L15.5376 11.9479L15.4768 12.1458L15.4038 12.3333L15.2943 12.5417L15.1605 12.7396L14.9293 13.0208L14.5886 13.3542L14.1627 13.7083L13.9802 13.8333L13.8829 13.8958L13.7125 14.0104L13.5422 14.125L13.4935 14.1458L13.4692 14.1667L13.4205 14.1875L12.6905 14.5833L12.1308 14.8438L11.6198 15.0417L10.9384 15.2708L10.4517 15.4479L10.2327 15.5312L9.98935 15.6146L9.6365 15.75L9.527 15.7812L9.40532 15.8229L9.29582 15.8646L9.17414 15.8958L9.07681 15.9167L8.9308 15.9479L8.78479 15.9688Z"/>
</mask>
<path d="M8.78479 15.9688L8.65095 15.9896L8.49278 16H8.10342L7.92091 15.9896L7.55589 15.9479L7.22738 15.8854L6.92319 15.8229L6.63118 15.7396L6.35133 15.6562L6.10798 15.5833L5.8403 15.4896L5.47529 15.3646L5.18327 15.2604L4.84259 15.1354L4.5749 15.0417L4.34373 14.9479L4.02738 14.8229L3.71103 14.6979L3.22433 14.4896L2.92015 14.3542L2.6403 14.2396L2.36046 14.1042L2.12928 13.9792L1.9346 13.8854L1.72776 13.7604L1.55741 13.6562L1.41141 13.5521L1.2654 13.4479L1.14373 13.3542L0.973384 13.2122L0.839544 13.0729L0.693536 12.9062L0.547529 12.6979L0.377186 12.3854L0.243346 12.0312L0.170342 11.7812L0.0973384 11.5208L0.0486692 11.2292L0.0121673 10.9792L0 10.7292V10.4896V10.1979L0.0243346 9.96875L0.0486692 9.75L0.0730038 9.5625L0.146008 9.26042L0.243346 8.94792L0.31635 8.6875L0.498859 8.19792L0.644867 7.85417L0.76654 7.58333L0.888213 7.3125L1.04639 6.97917L1.10722 6.85417V6.83333L1.04639 6.5L0.924715 5.75L0.851711 5.22917L0.778707 4.70833L0.730038 4.29167L0.681369 3.94792L0.657034 3.61458L0.644867 3.33333L0.6327 2.97917L0.608365 2.55208L0.58403 2.27083L0.571863 1.95833V1.60417L0.559696 1.33333L0.571863 1.0625L0.58403 0.854167L0.596198 0.583333L0.620532 0.354167L0.644867 0.239583L0.657034 0.15625L0.717871 0.0729167L0.803042 0H0.827376H0.876046L0.924715 0.0208333L0.997719 0.0833333L1.16806 0.260417L1.2654 0.375L1.27757 0.416667L1.8616 1.25L2.27529 1.85417L2.46996 2.13542L2.71331 2.48958L3.09049 2.98958L3.57719 3.65625L3.82053 3.94792L3.97871 4.15625L4.25855 4.5L4.40456 4.67708L4.5384 4.83333L4.59924 4.92708L4.62357 4.91667L4.85475 4.84375L5.14677 4.78125L5.48745 4.70833L5.86464 4.65625L6.24183 4.60417L6.50951 4.58333L6.78935 4.5625L7.08137 4.54167L7.39772 4.53125L7.7019 4.52083H8.16426L8.45627 4.53125H8.73612L9.05247 4.55208L9.28365 4.57292L9.62434 4.61458L9.91635 4.65625L10.257 4.71875L10.6342 4.80208L11.3034 4.41667L12.0943 3.94792L12.289 3.82292L12.4958 3.69792L12.6418 3.59375L12.8243 3.46875L13.2015 3.19792L14.7103 1.95833L15.5985 1.14583L15.635 1.10417L15.6593 1.09375H15.6837H15.7202H15.7688L15.8053 1.11458L15.854 1.16667L15.9027 1.29167L15.9392 1.45833L15.9635 1.64583L15.9878 2.08333L16 2.52083L15.9635 2.82292V3L15.9392 3.16667L15.8783 3.44792L15.8175 3.73958L15.7567 3.97917L15.6837 4.25L15.6106 4.51042L15.5376 4.73958L15.4281 5.02083L15.2335 5.52083L15.1118 5.8125L14.9779 6.125L14.8806 6.35417L14.7589 6.64583L14.6738 6.84375L14.6616 6.89583V6.9375L14.6738 7.05208L14.7224 7.20833L14.9049 7.625L15.0753 8.07292L15.2213 8.51042L15.3551 8.98958L15.416 9.27083L15.4768 9.55208L15.5133 9.82292L15.562 10.1042L15.5985 10.3646L15.6106 10.5417L15.635 10.6667V10.7604V11.2708L15.6228 11.4062L15.6106 11.5521L15.5863 11.7188L15.5376 11.9479L15.4768 12.1458L15.4038 12.3333L15.2943 12.5417L15.1605 12.7396L14.9293 13.0208L14.5886 13.3542L14.1627 13.7083L13.9802 13.8333L13.8829 13.8958L13.7125 14.0104L13.5422 14.125L13.4935 14.1458L13.4692 14.1667L13.4205 14.1875L12.6905 14.5833L12.1308 14.8438L11.6198 15.0417L10.9384 15.2708L10.4517 15.4479L10.2327 15.5312L9.98935 15.6146L9.6365 15.75L9.527 15.7812L9.40532 15.8229L9.29582 15.8646L9.17414 15.8958L9.07681 15.9167L8.9308 15.9479L8.78479 15.9688Z" fill="#1D1D1D" stroke="#F5F5F5" stroke-width="0.8" mask="url(#path-1-inside-1_407_140)"/>
<path d="M9.96439 8.412C9.96172 8.43867 9.94839 8.46133 9.92439 8.48C9.90306 8.49867 9.89106 8.52267 9.88839 8.552C9.86706 8.56 9.84439 8.568 9.82039 8.576C9.79906 8.584 9.77639 8.592 9.75239 8.6C9.60039 8.656 9.42972 8.71467 9.24039 8.776C9.05372 8.83733 8.85506 8.888 8.64439 8.928C8.43372 8.968 8.21772 8.984 7.99639 8.976C7.86039 8.97067 7.72572 8.95467 7.59239 8.928C7.46172 8.89867 7.35639 8.84933 7.27639 8.78C7.24706 8.724 7.23506 8.656 7.24039 8.576C7.24839 8.496 7.26439 8.412 7.28839 8.324C7.31506 8.236 7.34039 8.15333 7.36439 8.076C7.37239 8.052 7.38039 8.02933 7.38839 8.008C7.39639 7.984 7.40306 7.96267 7.40839 7.944C7.42972 7.86933 7.44972 7.796 7.46839 7.724C7.48706 7.64933 7.50972 7.57733 7.53639 7.508C7.56039 7.444 7.58839 7.38 7.62039 7.316C7.65506 7.252 7.68972 7.18933 7.72439 7.128C7.75372 7.06933 7.78572 7.00933 7.82039 6.948C7.85506 6.884 7.89106 6.824 7.92839 6.768C7.98439 6.68533 8.04306 6.61067 8.10439 6.544C8.16572 6.47733 8.23372 6.41867 8.30839 6.368C8.32972 6.35467 8.36439 6.34933 8.41239 6.352C8.46039 6.35467 8.50972 6.36133 8.56039 6.372C8.61372 6.38267 8.65372 6.396 8.68039 6.412C8.73372 6.43867 8.78439 6.48667 8.83239 6.556C8.88039 6.62533 8.92439 6.7 8.96439 6.78C9.00706 6.86 9.04306 6.93333 9.07239 7C9.10706 7.072 9.13906 7.14133 9.16839 7.208C9.19772 7.272 9.22306 7.344 9.24439 7.424C9.24706 7.42933 9.24572 7.43467 9.24039 7.44C9.23239 7.44267 9.23106 7.448 9.23639 7.456C9.21239 7.48533 9.18306 7.51333 9.14839 7.54C9.11372 7.56667 9.08039 7.57467 9.04839 7.564C9.02172 7.55333 8.99906 7.524 8.98039 7.476C8.96172 7.42533 8.94172 7.37867 8.92039 7.336C8.88039 7.25333 8.84172 7.17333 8.80439 7.096C8.76706 7.01867 8.72172 6.94267 8.66839 6.868C8.64439 6.836 8.61506 6.8 8.58039 6.76C8.54572 6.71733 8.51772 6.69467 8.49639 6.692C8.45639 6.68933 8.42306 6.704 8.39639 6.736C8.37239 6.76533 8.34839 6.79867 8.32439 6.836C8.30839 6.86533 8.28972 6.89333 8.26839 6.92C8.24972 6.94667 8.22706 6.96533 8.20039 6.976C8.12039 7.144 8.03772 7.312 7.95239 7.48C7.86706 7.64533 7.78972 7.82 7.72039 8.004C7.65372 8.18533 7.60439 8.38667 7.57239 8.608C7.65239 8.66133 7.75106 8.69733 7.86839 8.716C7.98839 8.732 8.10839 8.73733 8.22839 8.732C8.35106 8.72667 8.45506 8.71733 8.54039 8.704C8.70839 8.67733 8.87372 8.64267 9.03639 8.6C9.20172 8.55733 9.36172 8.51733 9.51639 8.48C9.67106 8.44 9.82039 8.41733 9.96439 8.412Z" fill="#F5F5F5"/>
<path d="M10.2449 12.6458H10.0259L10.0624 12.5104L10.1233 12.2604L10.2084 11.9688L10.2875 11.7188L10.4274 11.3854L10.5613 11.1042L10.6829 10.9271L10.8168 10.7396L10.829 10.75L10.8533 10.8021L10.8898 11.0417L10.902 11.1042L10.9263 11.2188L10.9628 11.3021L10.975 11.3542L10.9871 11.4271L11.0115 11.5104L11.0358 11.5938L11.0845 11.7396L11.121 11.8542L11.1453 11.9375L11.1696 12.0104L11.267 12.2396L11.4008 12.5104L11.3886 12.5208L11.2791 12.5417L11.0601 12.5729L10.8046 12.6042L10.5248 12.625L10.2449 12.6458Z" fill="#F5F5F5"/>
<path d="M12.7514 10L12.435 10.0104H12.4229H12.4107L12.435 10.1146L12.4715 10.2708L12.5202 10.4688L12.5689 10.6875L12.6175 10.8542L12.654 11.1146L12.6784 11.3021V11.6354L12.6662 12.1875H12.6905L12.9461 12.0208L13.1529 11.8542L13.3598 11.6562L13.5544 11.4375L13.6883 11.25L13.8343 10.9896L13.9681 10.7188L14.0411 10.5208L14.0898 10.3854L13.9073 10.3125L13.6518 10.2083L13.3598 10.1146L13.0312 10.0312L12.7514 10Z" fill="#F5F5F5"/>
<path d="M13.8708 6.28125L13.8099 6.30208H13.7248L13.6153 6.23958L13.4936 6.13542L13.4206 6.03125L13.3841 5.94792V5.82292L13.4084 5.76042L14.0335 5.05208L14.5765 4.41667L14.759 4.1875L14.9415 3.98958H14.9658L14.9902 4V4.19792L14.9658 4.25L14.8928 4.44792L14.8198 4.66667L14.6982 4.94792L14.5278 5.32292L14.4426 5.5L14.3696 5.625L14.2966 5.75L14.1871 5.9375L14.108 6.05208L14.0411 6.13542L13.9803 6.20833L13.9073 6.26042L13.8708 6.28125Z" fill="#F5F5F5"/>
<path d="M1.97116 5.82292H1.80082L1.76431 5.8125L1.71564 5.77083L1.67914 5.70833L1.63047 5.61458L1.56964 5.4375L1.52097 5.28125L1.49663 5.13542L1.4723 5.02083L1.4358 4.8125L1.41146 4.5625L1.38713 4.41667L1.37496 4.13542L1.36279 3.80208L1.37496 3.65625L1.39929 3.54167L1.41146 3.5H1.44796L1.4723 3.52083L1.52097 3.6875L1.5818 3.88542L1.64264 4.09375L1.72781 4.32292L1.80082 4.51042L1.84949 4.65625L1.91032 4.8125L1.95899 4.91667L2.01983 5.07292L2.0685 5.17708L2.105 5.27083L2.1415 5.35417L2.178 5.45833L2.20234 5.54167L2.2145 5.58333L2.19017 5.64583L2.11717 5.72917L1.97116 5.82292Z" fill="#F5F5F5"/>
<path d="M4.96431 12.625L4.86698 12.6146L4.97648 12.2917L5.04949 12.0208L5.13466 11.6979L5.18333 11.4479L5.23199 11.2083L5.24872 11.0521L5.2685 10.8646L5.28066 10.8021H5.29283L5.46317 10.9896L5.54834 11.1042L5.64568 11.2604L5.74302 11.4271L5.86469 11.6771L5.96203 11.9062L6.03504 12.1146L6.10804 12.2917L6.15671 12.4583L6.19321 12.5729L6.21755 12.6354L6.22971 12.6667H5.64568L5.36584 12.6562L5.12249 12.6354L4.96431 12.625Z" fill="#F5F5F5"/>
<path d="M3.52857 12.0729L3.55291 12.1979H3.50424L3.4799 12.1771L3.06622 11.9167L2.7377 11.6354L2.53085 11.4271L2.38485 11.2396L2.27154 11.0521L2.15367 10.8333L2.0685 10.625L2.03199 10.5208L2.01983 10.4688L2.11717 10.4062L2.43352 10.2708L2.72553 10.1667L3.00538 10.0833L3.27306 10.0312L3.50424 10L3.58941 9.98958L3.61374 10.0104L3.63808 10.0312L3.66241 10.0417L3.65025 10.0938L3.60158 10.25L3.52857 10.6458L3.50424 10.8958L3.49207 11.25V11.6458L3.50424 11.9167L3.52857 12.0729Z" fill="#F5F5F5"/>
</svg>
