<svg width="184" height="184" viewBox="0 0 184 184" fill="none" xmlns="http://www.w3.org/2000/svg">
<path d="M100.829 181.648L99.3232 181.883L97.5437 182H93.1635L91.1103 181.883L87.0038 181.414L83.308 180.711L79.8859 180.008L76.6008 179.07L73.4525 178.133L70.7148 177.312L67.7034 176.258L63.597 174.852L60.3118 173.68L56.4791 172.273L53.4677 171.219L50.8669 170.164L47.308 168.758L43.7491 167.352L38.2738 165.008L34.8517 163.484L31.7034 162.195L28.5551 160.672L25.9544 159.266L23.7643 158.211L21.4373 156.805L19.5209 155.633L17.8783 154.461L16.2357 153.289L14.8669 152.234L12.9506 150.638L11.4449 149.07L9.80228 147.195L8.1597 144.852L6.24335 141.336L4.73764 137.352L3.91635 134.539L3.09506 131.609L2.54753 128.328L2.13688 125.516L2 122.703V120.008V116.727L2.27376 114.148L2.54753 111.688L2.82129 109.578L3.64259 106.18L4.73764 102.664L5.55894 99.7344L7.61217 94.2266L9.25475 90.3594L10.6236 87.3125L11.9924 84.2656L13.7719 80.5156L14.4563 79.1094V78.875L13.7719 75.125L12.403 66.6875L11.5817 60.8281L10.7605 54.9688L10.2129 50.2812L9.6654 46.4141L9.39163 42.6641L9.25475 39.5L9.11787 35.5156L8.84411 30.7109L8.57034 27.5469L8.43346 24.0312V20.0469L8.29658 17L8.43346 13.9531L8.57034 11.6094L8.70722 8.5625L8.98099 5.98438L9.25475 4.69531L9.39163 3.75781L10.076 2.82031L11.0342 2H11.308H11.8555L12.403 2.23438L13.2243 2.9375L15.1407 4.92969L16.2357 6.21875L16.3726 6.6875L22.943 16.0625L27.597 22.8594L29.7871 26.0234L32.5247 30.0078L36.7681 35.6328L42.2433 43.1328L44.981 46.4141L46.7605 48.7578L49.9087 52.625L51.5513 54.6172L53.057 56.375L53.7414 57.4297L54.0152 57.3125L56.616 56.4922L59.9011 55.7891L63.7338 54.9688L67.9772 54.3828L72.2205 53.7969L75.2319 53.5625L78.3802 53.3281L81.6654 53.0938L85.2243 52.9766L88.6464 52.8594H93.8479L97.1331 52.9766H100.281L103.84 53.2109L106.441 53.4453L110.274 53.9141L113.559 54.3828L117.392 55.0859L121.635 56.0234L129.163 51.6875L138.061 46.4141L140.251 45.0078L142.578 43.6016L144.221 42.4297L146.274 41.0234L150.517 37.9766L167.49 24.0312L177.483 14.8906L177.894 14.4219L178.167 14.3047H178.441H178.852H179.399L179.81 14.5391L180.357 15.125L180.905 16.5313L181.316 18.4062L181.589 20.5156L181.863 25.4375L182 30.3594L181.589 33.7578V35.75L181.316 37.625L180.631 40.7891L179.947 44.0703L179.262 46.7656L178.441 49.8125L177.62 52.7422L176.798 55.3203L175.567 58.4844L173.376 64.1094L172.008 67.3906L170.502 70.9062L169.407 73.4844L168.038 76.7656L167.08 78.9922L166.943 79.5781V80.0469L167.08 81.3359L167.627 83.0938L169.681 87.7812L171.597 92.8203L173.24 97.7422L174.745 103.133L175.43 106.297L176.114 109.461L176.525 112.508L177.072 115.672L177.483 118.602L177.62 120.594L177.894 122V123.055V128.797L177.757 130.32L177.62 131.961L177.346 133.836L176.798 136.414L176.114 138.641L175.293 140.75L174.061 143.094L172.555 145.32L169.954 148.484L166.122 152.234L161.331 156.219L159.278 157.625L158.183 158.328L156.266 159.617L154.35 160.906L153.802 161.141L153.529 161.375L152.981 161.609L144.768 166.062L138.471 168.992L132.722 171.219L125.057 173.797L119.582 175.789L117.118 176.727L114.38 177.664L110.411 179.188L109.179 179.539L107.81 180.008L106.578 180.477L105.209 180.828L104.114 181.062L102.471 181.414L100.829 181.648Z" fill="#1D1D1D" stroke="#F5F5F5" stroke-width="3"/>
<path d="M108.34 106.238C108.31 106.545 108.156 106.805 107.88 107.02C107.635 107.235 107.497 107.511 107.466 107.848C107.221 107.94 106.96 108.032 106.684 108.124C106.439 108.216 106.178 108.308 105.902 108.4C104.154 109.044 102.192 109.719 100.014 110.424C97.8678 111.129 95.5832 111.712 93.1605 112.172C90.7378 112.632 88.2538 112.816 85.7085 112.724C84.1445 112.663 82.5958 112.479 81.0625 112.172C79.5598 111.835 78.3485 111.267 77.4285 110.47C77.0912 109.826 76.9532 109.044 77.0145 108.124C77.1065 107.204 77.2905 106.238 77.5665 105.226C77.8732 104.214 78.1645 103.263 78.4405 102.374C78.5325 102.098 78.6245 101.837 78.7165 101.592C78.8085 101.316 78.8852 101.071 78.9465 100.856C79.1918 99.9973 79.4218 99.154 79.6365 98.326C79.8512 97.4673 80.1118 96.6393 80.4185 95.842C80.6945 95.106 81.0165 94.37 81.3845 93.634C81.7832 92.898 82.1818 92.1773 82.5805 91.472C82.9178 90.7973 83.2858 90.1073 83.6845 89.402C84.0832 88.666 84.4972 87.976 84.9265 87.332C85.5705 86.3813 86.2452 85.5227 86.9505 84.756C87.6558 83.9893 88.4378 83.3147 89.2965 82.732C89.5418 82.5787 89.9405 82.5173 90.4925 82.548C91.0445 82.5787 91.6118 82.6553 92.1945 82.778C92.8078 82.9007 93.2678 83.054 93.5745 83.238C94.1878 83.5447 94.7705 84.0967 95.3225 84.894C95.8745 85.6913 96.3805 86.55 96.8405 87.47C97.3312 88.39 97.7452 89.2333 98.0825 90C98.4812 90.828 98.8492 91.6253 99.1865 92.392C99.5238 93.128 99.8152 93.956 100.06 94.876C100.091 94.9373 100.076 94.9987 100.014 95.06C99.9225 95.0907 99.9072 95.152 99.9685 95.244C99.6925 95.5813 99.3552 95.9033 98.9565 96.21C98.5578 96.5167 98.1745 96.6087 97.8065 96.486C97.4998 96.3633 97.2392 96.026 97.0245 95.474C96.8098 94.8913 96.5798 94.3547 96.3345 93.864C95.8745 92.9133 95.4298 91.9933 95.0005 91.104C94.5712 90.2147 94.0498 89.3407 93.4365 88.482C93.1605 88.114 92.8232 87.7 92.4245 87.24C92.0258 86.7493 91.7038 86.4887 91.4585 86.458C90.9985 86.4273 90.6152 86.596 90.3085 86.964C90.0325 87.3013 89.7565 87.6847 89.4805 88.114C89.2965 88.4513 89.0818 88.7733 88.8365 89.08C88.6218 89.3867 88.3612 89.6013 88.0545 89.724C87.1345 91.656 86.1838 93.588 85.2025 95.52C84.2212 97.4213 83.3318 99.43 82.5345 101.546C81.7678 103.631 81.2005 105.947 80.8325 108.492C81.7525 109.105 82.8872 109.519 84.2365 109.734C85.6165 109.918 86.9965 109.979 88.3765 109.918C89.7872 109.857 90.9832 109.749 91.9645 109.596C93.8965 109.289 95.7978 108.891 97.6685 108.4C99.5698 107.909 101.41 107.449 103.188 107.02C104.967 106.56 106.684 106.299 108.34 106.238Z" fill="#F5F5F5"/>
<path d="M117.256 146.266H114.792L115.202 144.742L115.887 141.93L116.845 138.648L117.735 135.836L119.309 132.086L120.814 128.922L122.183 126.93L123.689 124.82L123.826 124.938L124.1 125.523L124.51 128.219L124.647 128.922L124.921 130.211L125.332 131.148L125.468 131.734L125.605 132.555L125.879 133.492L126.153 134.43L126.7 136.07L127.111 137.359L127.385 138.297L127.659 139.117L128.754 141.695L130.259 144.742L130.122 144.859L128.89 145.094L126.427 145.445L123.552 145.797L120.404 146.031L117.256 146.266Z" fill="#F5F5F5"/>
<path d="M145.453 116.5L141.894 116.617H141.757H141.621L141.894 117.789L142.305 119.547L142.852 121.773L143.4 124.234L143.948 126.109L144.358 129.039L144.632 131.148V134.898L144.495 141.109H144.769L147.643 139.234L149.97 137.359L152.297 135.133L154.487 132.672L155.993 130.562L157.636 127.633L159.141 124.586L159.963 122.359L160.51 120.836L158.457 120.016L155.583 118.844L152.297 117.789L148.602 116.852L145.453 116.5Z" fill="#F5F5F5"/>
<path d="M158.046 74.6641L157.362 74.8984H156.404L155.172 74.1953L153.803 73.0234L152.982 71.8516L152.571 70.9141V69.5078L152.845 68.8047L159.877 60.8359L165.986 53.6875L168.039 51.1094L170.092 48.8828H170.366L170.64 49V51.2266L170.366 51.8125L169.544 54.0391L168.723 56.5L167.354 59.6641L165.438 63.8828L164.48 65.875L163.659 67.2812L162.837 68.6875L161.605 70.7969L160.716 72.0859L159.963 73.0234L159.278 73.8438L158.457 74.4297L158.046 74.6641Z" fill="#F5F5F5"/>
<path d="M24.1757 69.5078H22.2593L21.8487 69.3906L21.3011 68.9219L20.8905 68.2188L20.343 67.1641L19.6585 65.1719L19.111 63.4141L18.8372 61.7734L18.5635 60.4844L18.1528 58.1406L17.8791 55.3281L17.6053 53.6875L17.4684 50.5234L17.3315 46.7734L17.4684 45.1328L17.7422 43.8438L17.8791 43.375H18.2897L18.5635 43.6094L19.111 45.4844L19.7954 47.7109L20.4798 50.0547L21.438 52.6328L22.2593 54.7422L22.8068 56.3828L23.4912 58.1406L24.0388 59.3125L24.7232 61.0703L25.2707 62.2422L25.6814 63.2969L26.092 64.2344L26.5026 65.4062L26.7764 66.3438L26.9133 66.8125L26.6395 67.5156L25.8182 68.4531L24.1757 69.5078Z" fill="#F5F5F5"/>
<path d="M57.8487 146.031L56.7536 145.914L57.9855 142.281L58.8068 139.234L59.765 135.602L60.3125 132.789L60.8601 130.094L61.0483 128.336L61.2707 126.227L61.4076 125.523H61.5445L63.4608 127.633L64.419 128.922L65.5141 130.68L66.6091 132.555L67.9779 135.367L69.073 137.945L69.8943 140.289L70.7156 142.281L71.2631 144.156L71.6738 145.445L71.9475 146.148L72.0844 146.5H65.5141L62.3658 146.383L59.6281 146.148L57.8487 146.031Z" fill="#F5F5F5"/>
<path d="M41.6966 139.82L41.9703 141.227H41.4228L41.149 140.992L36.495 138.062L32.7992 134.898L30.4722 132.555L28.8296 130.445L27.5549 128.336L26.2289 125.875L25.2707 123.531L24.8601 122.359L24.7232 121.773L25.8182 121.07L29.3772 119.547L32.6623 118.375L35.8106 117.438L38.822 116.852L41.4228 116.5L42.381 116.383L42.6547 116.617L42.9285 116.852L43.2023 116.969L43.0654 117.555L42.5179 119.312L41.6966 123.766L41.4228 126.578L41.2859 130.562V135.016L41.4228 138.062L41.6966 139.82Z" fill="#F5F5F5"/>
<path d="M117.256 146.266H114.792L115.202 144.742L115.887 141.93L116.845 138.648L117.735 135.836L119.309 132.086L120.814 128.922L122.183 126.93L123.689 124.82L123.826 124.938L124.1 125.523L124.51 128.219L124.647 128.922L124.921 130.211L125.332 131.148L125.468 131.734L125.605 132.555L125.879 133.492L126.153 134.43L126.7 136.07L127.111 137.359L127.385 138.297L127.659 139.117L128.754 141.695L130.259 144.742L130.122 144.859L128.89 145.094L126.427 145.445L123.552 145.797L120.404 146.031L117.256 146.266Z" stroke="#F5F5F5"/>
<path d="M145.453 116.5L141.894 116.617H141.757H141.621L141.894 117.789L142.305 119.547L142.852 121.773L143.4 124.234L143.948 126.109L144.358 129.039L144.632 131.148V134.898L144.495 141.109H144.769L147.643 139.234L149.97 137.359L152.297 135.133L154.487 132.672L155.993 130.562L157.636 127.633L159.141 124.586L159.963 122.359L160.51 120.836L158.457 120.016L155.583 118.844L152.297 117.789L148.602 116.852L145.453 116.5Z" stroke="#F5F5F5"/>
<path d="M158.046 74.6641L157.362 74.8984H156.404L155.172 74.1953L153.803 73.0234L152.982 71.8516L152.571 70.9141V69.5078L152.845 68.8047L159.877 60.8359L165.986 53.6875L168.039 51.1094L170.092 48.8828H170.366L170.64 49V51.2266L170.366 51.8125L169.544 54.0391L168.723 56.5L167.354 59.6641L165.438 63.8828L164.48 65.875L163.659 67.2812L162.837 68.6875L161.605 70.7969L160.716 72.0859L159.963 73.0234L159.278 73.8438L158.457 74.4297L158.046 74.6641Z" stroke="#F5F5F5"/>
<path d="M24.1757 69.5078H22.2593L21.8487 69.3906L21.3011 68.9219L20.8905 68.2188L20.343 67.1641L19.6585 65.1719L19.111 63.4141L18.8372 61.7734L18.5635 60.4844L18.1528 58.1406L17.8791 55.3281L17.6053 53.6875L17.4684 50.5234L17.3315 46.7734L17.4684 45.1328L17.7422 43.8438L17.8791 43.375H18.2897L18.5635 43.6094L19.111 45.4844L19.7954 47.7109L20.4798 50.0547L21.438 52.6328L22.2593 54.7422L22.8068 56.3828L23.4912 58.1406L24.0388 59.3125L24.7232 61.0703L25.2707 62.2422L25.6814 63.2969L26.092 64.2344L26.5026 65.4062L26.7764 66.3438L26.9133 66.8125L26.6395 67.5156L25.8182 68.4531L24.1757 69.5078Z" stroke="#F5F5F5"/>
<path d="M57.8487 146.031L56.7536 145.914L57.9855 142.281L58.8068 139.234L59.765 135.602L60.3125 132.789L60.8601 130.094L61.0483 128.336L61.2707 126.227L61.4076 125.523H61.5445L63.4608 127.633L64.419 128.922L65.5141 130.68L66.6091 132.555L67.9779 135.367L69.073 137.945L69.8943 140.289L70.7156 142.281L71.2631 144.156L71.6738 145.445L71.9475 146.148L72.0844 146.5H65.5141L62.3658 146.383L59.6281 146.148L57.8487 146.031Z" stroke="#F5F5F5"/>
<path d="M41.6966 139.82L41.9703 141.227H41.4228L41.149 140.992L36.495 138.062L32.7992 134.898L30.4722 132.555L28.8296 130.445L27.5549 128.336L26.2289 125.875L25.2707 123.531L24.8601 122.359L24.7232 121.773L25.8182 121.07L29.3772 119.547L32.6623 118.375L35.8106 117.438L38.822 116.852L41.4228 116.5L42.381 116.383L42.6547 116.617L42.9285 116.852L43.2023 116.969L43.0654 117.555L42.5179 119.312L41.6966 123.766L41.4228 126.578L41.2859 130.562V135.016L41.4228 138.062L41.6966 139.82Z" stroke="#F5F5F5"/>
</svg>
