<svg width="32" height="32" viewBox="0 0 32 32" fill="none" xmlns="http://www.w3.org/2000/svg">
<mask id="path-1-inside-1_407_144" fill="white">
<path d="M17.5696 31.9375L17.3019 31.9792L16.9856 32H16.2068L15.8418 31.9792L15.1118 31.8958L14.4548 31.7708L13.8464 31.6458L13.2624 31.4792L12.7027 31.3125L12.216 31.1667L11.6806 30.9792L10.9506 30.7292L10.3665 30.5208L9.68517 30.2708L9.14981 30.0833L8.68745 29.8958L8.05475 29.6458L7.42205 29.3958L6.44867 28.9792L5.8403 28.7083L5.28061 28.4792L4.72091 28.2083L4.25855 27.9583L3.8692 27.7708L3.45551 27.5208L3.11483 27.3125L2.82281 27.1042L2.5308 26.8958L2.28745 26.7083L1.94677 26.4245L1.67909 26.1458L1.38707 25.8125L1.09506 25.3958L0.754373 24.7708L0.486692 24.0625L0.340684 23.5625L0.194677 23.0417L0.0973384 22.4583L0.0243346 21.9583L0 21.4583V20.9792V20.3958L0.0486692 19.9375L0.0973384 19.5L0.146008 19.125L0.292015 18.5208L0.486692 17.8958L0.6327 17.375L0.997719 16.3958L1.28973 15.7083L1.53308 15.1667L1.77643 14.625L2.09278 13.9583L2.21445 13.7083V13.6667L2.09278 13L1.84943 11.5L1.70342 10.4583L1.55741 9.41667L1.46008 8.58333L1.36274 7.89583L1.31407 7.22917L1.28973 6.66667L1.2654 5.95833L1.21673 5.10417L1.16806 4.54167L1.14373 3.91667V3.20833L1.11939 2.66667L1.14373 2.125L1.16806 1.70833L1.1924 1.16667L1.24106 0.708333L1.28973 0.479167L1.31407 0.3125L1.43574 0.145833L1.60608 0H1.65475H1.75209L1.84943 0.0416667L1.99544 0.166667L2.33612 0.520833L2.5308 0.75L2.55513 0.833333L3.72319 2.5L4.55057 3.70833L4.93992 4.27083L5.42662 4.97917L6.18099 5.97917L7.15437 7.3125L7.64107 7.89583L7.95741 8.3125L8.51711 9L8.80913 9.35417L9.07681 9.66667L9.19848 9.85417L9.24715 9.83333L9.70951 9.6875L10.2935 9.5625L10.9749 9.41667L11.7293 9.3125L12.4837 9.20833L13.019 9.16667L13.5787 9.125L14.1627 9.08333L14.7954 9.0625L15.4038 9.04167H16.3285L16.9125 9.0625H17.4722L18.1049 9.10417L18.5673 9.14583L19.2487 9.22917L19.8327 9.3125L20.5141 9.4375L21.2684 9.60417L22.6068 8.83333L24.1886 7.89583L24.5779 7.64583L24.9916 7.39583L25.2837 7.1875L25.6487 6.9375L26.403 6.39583L29.4205 3.91667L31.197 2.29167L31.27 2.20833L31.3186 2.1875H31.3673H31.4403H31.5376L31.6106 2.22917L31.708 2.33333L31.8053 2.58333L31.8783 2.91667L31.927 3.29167L31.9757 4.16667L32 5.04167L31.927 5.64583V6L31.8783 6.33333L31.7567 6.89583L31.635 7.47917L31.5133 7.95833L31.3673 8.5L31.2213 9.02083L31.0753 9.47917L30.8563 10.0417L30.4669 11.0417L30.2236 11.625L29.9559 12.25L29.7612 12.7083L29.5179 13.2917L29.3475 13.6875L29.3232 13.7917V13.875L29.3475 14.1042L29.4449 14.4167L29.8099 15.25L30.1506 16.1458L30.4426 17.0208L30.7103 17.9792L30.8319 18.5417L30.9536 19.1042L31.0266 19.6458L31.124 20.2083L31.197 20.7292L31.2213 21.0833L31.27 21.3333V21.5208V22.5417L31.2456 22.8125L31.2213 23.1042L31.1726 23.4375L31.0753 23.8958L30.9536 24.2917L30.8076 24.6667L30.5886 25.0833L30.3209 25.4792L29.8586 26.0417L29.1772 26.7083L28.3255 27.4167L27.9605 27.6667L27.7658 27.7917L27.4251 28.0208L27.0844 28.25L26.9871 28.2917L26.9384 28.3333L26.8411 28.375L25.381 29.1667L24.2616 29.6875L23.2395 30.0833L21.8768 30.5417L20.9034 30.8958L20.4654 31.0625L19.9787 31.2292L19.273 31.5L19.054 31.5625L18.8106 31.6458L18.5916 31.7292L18.3483 31.7917L18.1536 31.8333L17.8616 31.8958L17.5696 31.9375Z"/>
</mask>
<path d="M17.5696 31.9375L17.3019 31.9792L16.9856 32H16.2068L15.8418 31.9792L15.1118 31.8958L14.4548 31.7708L13.8464 31.6458L13.2624 31.4792L12.7027 31.3125L12.216 31.1667L11.6806 30.9792L10.9506 30.7292L10.3665 30.5208L9.68517 30.2708L9.14981 30.0833L8.68745 29.8958L8.05475 29.6458L7.42205 29.3958L6.44867 28.9792L5.8403 28.7083L5.28061 28.4792L4.72091 28.2083L4.25855 27.9583L3.8692 27.7708L3.45551 27.5208L3.11483 27.3125L2.82281 27.1042L2.5308 26.8958L2.28745 26.7083L1.94677 26.4245L1.67909 26.1458L1.38707 25.8125L1.09506 25.3958L0.754373 24.7708L0.486692 24.0625L0.340684 23.5625L0.194677 23.0417L0.0973384 22.4583L0.0243346 21.9583L0 21.4583V20.9792V20.3958L0.0486692 19.9375L0.0973384 19.5L0.146008 19.125L0.292015 18.5208L0.486692 17.8958L0.6327 17.375L0.997719 16.3958L1.28973 15.7083L1.53308 15.1667L1.77643 14.625L2.09278 13.9583L2.21445 13.7083V13.6667L2.09278 13L1.84943 11.5L1.70342 10.4583L1.55741 9.41667L1.46008 8.58333L1.36274 7.89583L1.31407 7.22917L1.28973 6.66667L1.2654 5.95833L1.21673 5.10417L1.16806 4.54167L1.14373 3.91667V3.20833L1.11939 2.66667L1.14373 2.125L1.16806 1.70833L1.1924 1.16667L1.24106 0.708333L1.28973 0.479167L1.31407 0.3125L1.43574 0.145833L1.60608 0H1.65475H1.75209L1.84943 0.0416667L1.99544 0.166667L2.33612 0.520833L2.5308 0.75L2.55513 0.833333L3.72319 2.5L4.55057 3.70833L4.93992 4.27083L5.42662 4.97917L6.18099 5.97917L7.15437 7.3125L7.64107 7.89583L7.95741 8.3125L8.51711 9L8.80913 9.35417L9.07681 9.66667L9.19848 9.85417L9.24715 9.83333L9.70951 9.6875L10.2935 9.5625L10.9749 9.41667L11.7293 9.3125L12.4837 9.20833L13.019 9.16667L13.5787 9.125L14.1627 9.08333L14.7954 9.0625L15.4038 9.04167H16.3285L16.9125 9.0625H17.4722L18.1049 9.10417L18.5673 9.14583L19.2487 9.22917L19.8327 9.3125L20.5141 9.4375L21.2684 9.60417L22.6068 8.83333L24.1886 7.89583L24.5779 7.64583L24.9916 7.39583L25.2837 7.1875L25.6487 6.9375L26.403 6.39583L29.4205 3.91667L31.197 2.29167L31.27 2.20833L31.3186 2.1875H31.3673H31.4403H31.5376L31.6106 2.22917L31.708 2.33333L31.8053 2.58333L31.8783 2.91667L31.927 3.29167L31.9757 4.16667L32 5.04167L31.927 5.64583V6L31.8783 6.33333L31.7567 6.89583L31.635 7.47917L31.5133 7.95833L31.3673 8.5L31.2213 9.02083L31.0753 9.47917L30.8563 10.0417L30.4669 11.0417L30.2236 11.625L29.9559 12.25L29.7612 12.7083L29.5179 13.2917L29.3475 13.6875L29.3232 13.7917V13.875L29.3475 14.1042L29.4449 14.4167L29.8099 15.25L30.1506 16.1458L30.4426 17.0208L30.7103 17.9792L30.8319 18.5417L30.9536 19.1042L31.0266 19.6458L31.124 20.2083L31.197 20.7292L31.2213 21.0833L31.27 21.3333V21.5208V22.5417L31.2456 22.8125L31.2213 23.1042L31.1726 23.4375L31.0753 23.8958L30.9536 24.2917L30.8076 24.6667L30.5886 25.0833L30.3209 25.4792L29.8586 26.0417L29.1772 26.7083L28.3255 27.4167L27.9605 27.6667L27.7658 27.7917L27.4251 28.0208L27.0844 28.25L26.9871 28.2917L26.9384 28.3333L26.8411 28.375L25.381 29.1667L24.2616 29.6875L23.2395 30.0833L21.8768 30.5417L20.9034 30.8958L20.4654 31.0625L19.9787 31.2292L19.273 31.5L19.054 31.5625L18.8106 31.6458L18.5916 31.7292L18.3483 31.7917L18.1536 31.8333L17.8616 31.8958L17.5696 31.9375Z" fill="#1D1D1D" stroke="#F5F5F5" mask="url(#path-1-inside-1_407_144)"/>
<path d="M18.9287 18.0938C18.9234 18.1471 18.8967 18.1924 18.8487 18.2298C18.806 18.2671 18.782 18.3151 18.7767 18.3738C18.734 18.3898 18.6887 18.4058 18.6407 18.4218C18.598 18.4378 18.5527 18.4538 18.5047 18.4698C18.2007 18.5818 17.8594 18.6991 17.4807 18.8218C17.1074 18.9444 16.71 19.0458 16.2887 19.1258C15.8674 19.2058 15.4354 19.2378 14.9927 19.2218C14.7207 19.2111 14.4514 19.1791 14.1847 19.1258C13.9234 19.0671 13.7127 18.9684 13.5527 18.8298C13.494 18.7178 13.47 18.5818 13.4807 18.4218C13.4967 18.2618 13.5287 18.0938 13.5767 17.9178C13.63 17.7418 13.6807 17.5764 13.7287 17.4218C13.7447 17.3738 13.7607 17.3284 13.7767 17.2858C13.7927 17.2378 13.806 17.1951 13.8167 17.1578C13.8594 17.0084 13.8994 16.8618 13.9367 16.7178C13.974 16.5684 14.0194 16.4244 14.0727 16.2858C14.1207 16.1578 14.1767 16.0298 14.2407 15.9018C14.31 15.7738 14.3794 15.6484 14.4487 15.5258C14.5074 15.4084 14.5714 15.2884 14.6407 15.1658C14.71 15.0378 14.782 14.9178 14.8567 14.8058C14.9687 14.6404 15.086 14.4911 15.2087 14.3578C15.3314 14.2244 15.4674 14.1071 15.6167 14.0058C15.6594 13.9791 15.7287 13.9684 15.8247 13.9738C15.9207 13.9791 16.0194 13.9924 16.1207 14.0138C16.2274 14.0351 16.3074 14.0618 16.3607 14.0938C16.4674 14.1471 16.5687 14.2431 16.6647 14.3818C16.7607 14.5204 16.8487 14.6698 16.9287 14.8298C17.014 14.9898 17.086 15.1364 17.1447 15.2698C17.214 15.4138 17.278 15.5524 17.3367 15.6858C17.3954 15.8138 17.446 15.9578 17.4887 16.1178C17.494 16.1284 17.4914 16.1391 17.4807 16.1498C17.4647 16.1551 17.462 16.1658 17.4727 16.1818C17.4247 16.2404 17.366 16.2964 17.2967 16.3498C17.2274 16.4031 17.1607 16.4191 17.0967 16.3978C17.0434 16.3764 16.998 16.3178 16.9607 16.2218C16.9234 16.1204 16.8834 16.0271 16.8407 15.9418C16.7607 15.7764 16.6834 15.6164 16.6087 15.4618C16.534 15.3071 16.4434 15.1551 16.3367 15.0058C16.2887 14.9418 16.23 14.8698 16.1607 14.7898C16.0914 14.7044 16.0354 14.6591 15.9927 14.6538C15.9127 14.6484 15.846 14.6778 15.7927 14.7418C15.7447 14.8004 15.6967 14.8671 15.6487 14.9418C15.6167 15.0004 15.5794 15.0564 15.5367 15.1098C15.4994 15.1631 15.454 15.2004 15.4007 15.2218C15.2407 15.5578 15.0754 15.8938 14.9047 16.2298C14.734 16.5604 14.5794 16.9098 14.4407 17.2778C14.3074 17.6404 14.2087 18.0431 14.1447 18.4858C14.3047 18.5924 14.502 18.6644 14.7367 18.7018C14.9767 18.7338 15.2167 18.7444 15.4567 18.7338C15.702 18.7231 15.91 18.7044 16.0807 18.6778C16.4167 18.6244 16.7474 18.5551 17.0727 18.4698C17.4034 18.3844 17.7234 18.3044 18.0327 18.2298C18.342 18.1498 18.6407 18.1044 18.9287 18.0938Z" fill="#F5F5F5"/>
<path d="M20.4898 25.2917H20.0518L20.1248 25.0208L20.2465 24.5208L20.4168 23.9375L20.575 23.4375L20.8549 22.7708L21.1225 22.2083L21.3659 21.8542L21.6336 21.4792L21.6579 21.5L21.7066 21.6042L21.7796 22.0833L21.8039 22.2083L21.8526 22.4375L21.9256 22.6042L21.9499 22.7083L21.9743 22.8542L22.0229 23.0208L22.0716 23.1875L22.1689 23.4792L22.2419 23.7083L22.2906 23.875L22.3393 24.0208L22.534 24.4792L22.8016 25.0208L22.7773 25.0417L22.5583 25.0833L22.1203 25.1458L21.6092 25.2083L21.0495 25.25L20.4898 25.2917Z" fill="#F5F5F5"/>
<path d="M25.5028 20L24.8701 20.0208H24.8457H24.8214L24.8701 20.2292L24.9431 20.5417L25.0404 20.9375L25.1378 21.375L25.2351 21.7083L25.3081 22.2292L25.3568 22.6042V23.2708L25.3324 24.375H25.3811L25.8921 24.0417L26.3058 23.7083L26.7195 23.3125L27.1089 22.875L27.3765 22.5L27.6686 21.9792L27.9362 21.4375L28.0822 21.0417L28.1796 20.7708L27.8146 20.625L27.3035 20.4167L26.7195 20.2292L26.0625 20.0625L25.5028 20Z" fill="#F5F5F5"/>
<path d="M27.7416 12.5625L27.6199 12.6042H27.4495L27.2305 12.4792L26.9872 12.2708L26.8412 12.0625L26.7682 11.8958V11.6458L26.8168 11.5208L28.067 10.1042L29.153 8.83333L29.518 8.375L29.883 7.97917H29.9317L29.9803 8V8.39583L29.9317 8.5L29.7857 8.89583L29.6397 9.33333L29.3963 9.89583L29.0556 10.6458L28.8853 11L28.7393 11.25L28.5933 11.5L28.3743 11.875L28.2161 12.1042L28.0822 12.2708L27.9606 12.4167L27.8146 12.5208L27.7416 12.5625Z" fill="#F5F5F5"/>
<path d="M3.94232 11.6458H3.60163L3.52863 11.625L3.43129 11.5417L3.35829 11.4167L3.26095 11.2292L3.13927 10.875L3.04194 10.5625L2.99327 10.2708L2.9446 10.0417L2.87159 9.625L2.82292 9.125L2.77426 8.83333L2.74992 8.27083L2.72559 7.60417L2.74992 7.3125L2.79859 7.08333L2.82292 7H2.89593L2.9446 7.04167L3.04194 7.375L3.16361 7.77083L3.28528 8.1875L3.45562 8.64583L3.60163 9.02083L3.69897 9.3125L3.82064 9.625L3.91798 9.83333L4.03965 10.1458L4.13699 10.3542L4.21 10.5417L4.283 10.7083L4.356 10.9167L4.40467 11.0833L4.42901 11.1667L4.38034 11.2917L4.23433 11.4583L3.94232 11.6458Z" fill="#F5F5F5"/>
<path d="M9.92863 25.25L9.73395 25.2292L9.95296 24.5833L10.099 24.0417L10.2693 23.3958L10.3667 22.8958L10.464 22.4167L10.4974 22.1042L10.537 21.7292L10.5613 21.6042H10.5857L10.9263 21.9792L11.0967 22.2083L11.2914 22.5208L11.486 22.8542L11.7294 23.3542L11.9241 23.8125L12.0701 24.2292L12.2161 24.5833L12.3134 24.9167L12.3864 25.1458L12.4351 25.2708L12.4594 25.3333H11.2914L10.7317 25.3125L10.245 25.2708L9.92863 25.25Z" fill="#F5F5F5"/>
<path d="M7.05715 24.1458L7.10581 24.3958H7.00848L6.95981 24.3542L6.13243 23.8333L5.4754 23.2708L5.06171 22.8542L4.76969 22.4792L4.54308 22.1042L4.30734 21.6667L4.13699 21.25L4.06399 21.0417L4.03965 20.9375L4.23433 20.8125L4.86703 20.5417L5.45106 20.3333L6.01076 20.1667L6.54612 20.0625L7.00848 20L7.17882 19.9792L7.22749 20.0208L7.27616 20.0625L7.32483 20.0833L7.30049 20.1875L7.20315 20.5L7.05715 21.2917L7.00848 21.7917L6.98414 22.5V23.2917L7.00848 23.8333L7.05715 24.1458Z" fill="#F5F5F5"/>
<path d="M20.4898 25.2917H20.0518L20.1248 25.0208L20.2465 24.5208L20.4168 23.9375L20.575 23.4375L20.8549 22.7708L21.1225 22.2083L21.3659 21.8542L21.6336 21.4792L21.6579 21.5L21.7066 21.6042L21.7796 22.0833L21.8039 22.2083L21.8526 22.4375L21.9256 22.6042L21.9499 22.7083L21.9743 22.8542L22.0229 23.0208L22.0716 23.1875L22.1689 23.4792L22.2419 23.7083L22.2906 23.875L22.3393 24.0208L22.534 24.4792L22.8016 25.0208L22.7773 25.0417L22.5583 25.0833L22.1203 25.1458L21.6092 25.2083L21.0495 25.25L20.4898 25.2917Z" stroke="#F5F5F5" stroke-width="0.5"/>
<path d="M25.5028 20L24.8701 20.0208H24.8457H24.8214L24.8701 20.2292L24.9431 20.5417L25.0404 20.9375L25.1378 21.375L25.2351 21.7083L25.3081 22.2292L25.3568 22.6042V23.2708L25.3324 24.375H25.3811L25.8921 24.0417L26.3058 23.7083L26.7195 23.3125L27.1089 22.875L27.3765 22.5L27.6686 21.9792L27.9362 21.4375L28.0822 21.0417L28.1796 20.7708L27.8146 20.625L27.3035 20.4167L26.7195 20.2292L26.0625 20.0625L25.5028 20Z" stroke="#F5F5F5" stroke-width="0.5"/>
<path d="M27.7416 12.5625L27.6199 12.6042H27.4495L27.2305 12.4792L26.9872 12.2708L26.8412 12.0625L26.7682 11.8958V11.6458L26.8168 11.5208L28.067 10.1042L29.153 8.83333L29.518 8.375L29.883 7.97917H29.9317L29.9803 8V8.39583L29.9317 8.5L29.7857 8.89583L29.6397 9.33333L29.3963 9.89583L29.0556 10.6458L28.8853 11L28.7393 11.25L28.5933 11.5L28.3743 11.875L28.2161 12.1042L28.0822 12.2708L27.9606 12.4167L27.8146 12.5208L27.7416 12.5625Z" stroke="#F5F5F5" stroke-width="0.5"/>
<path d="M3.94232 11.6458H3.60163L3.52863 11.625L3.43129 11.5417L3.35829 11.4167L3.26095 11.2292L3.13927 10.875L3.04194 10.5625L2.99327 10.2708L2.9446 10.0417L2.87159 9.625L2.82292 9.125L2.77426 8.83333L2.74992 8.27083L2.72559 7.60417L2.74992 7.3125L2.79859 7.08333L2.82292 7H2.89593L2.9446 7.04167L3.04194 7.375L3.16361 7.77083L3.28528 8.1875L3.45562 8.64583L3.60163 9.02083L3.69897 9.3125L3.82064 9.625L3.91798 9.83333L4.03965 10.1458L4.13699 10.3542L4.21 10.5417L4.283 10.7083L4.356 10.9167L4.40467 11.0833L4.42901 11.1667L4.38034 11.2917L4.23433 11.4583L3.94232 11.6458Z" stroke="#F5F5F5" stroke-width="0.5"/>
<path d="M9.92863 25.25L9.73395 25.2292L9.95296 24.5833L10.099 24.0417L10.2693 23.3958L10.3667 22.8958L10.464 22.4167L10.4974 22.1042L10.537 21.7292L10.5613 21.6042H10.5857L10.9263 21.9792L11.0967 22.2083L11.2914 22.5208L11.486 22.8542L11.7294 23.3542L11.9241 23.8125L12.0701 24.2292L12.2161 24.5833L12.3134 24.9167L12.3864 25.1458L12.4351 25.2708L12.4594 25.3333H11.2914L10.7317 25.3125L10.245 25.2708L9.92863 25.25Z" stroke="#F5F5F5" stroke-width="0.5"/>
<path d="M7.05715 24.1458L7.10581 24.3958H7.00848L6.95981 24.3542L6.13243 23.8333L5.4754 23.2708L5.06171 22.8542L4.76969 22.4792L4.54308 22.1042L4.30734 21.6667L4.13699 21.25L4.06399 21.0417L4.03965 20.9375L4.23433 20.8125L4.86703 20.5417L5.45106 20.3333L6.01076 20.1667L6.54612 20.0625L7.00848 20L7.17882 19.9792L7.22749 20.0208L7.27616 20.0625L7.32483 20.0833L7.30049 20.1875L7.20315 20.5L7.05715 21.2917L7.00848 21.7917L6.98414 22.5V23.2917L7.00848 23.8333L7.05715 24.1458Z" stroke="#F5F5F5" stroke-width="0.5"/>
</svg>
