<svg width="96" height="96" viewBox="0 0 96 96" fill="none" xmlns="http://www.w3.org/2000/svg">
<mask id="path-1-inside-1_407_148" fill="white">
<path d="M52.7087 95.8125L51.9057 95.9375L50.9567 96H48.6205L47.5255 95.9375L45.3354 95.6875L43.3643 95.3125L41.5392 94.9375L39.7871 94.4375L38.108 93.9375L36.6479 93.5L35.0418 92.9375L32.8517 92.1875L31.0996 91.5625L29.0555 90.8125L27.4494 90.25L26.0624 89.6875L24.1643 88.9375L22.2662 88.1875L19.346 86.9375L17.5209 86.125L15.8418 85.4375L14.1627 84.625L12.7757 83.875L11.6076 83.3125L10.3665 82.5625L9.34449 81.9375L8.46844 81.3125L7.59239 80.6875L6.86236 80.125L5.8403 79.2734L5.03726 78.4375L4.16122 77.4375L3.28517 76.1875L2.26312 74.3125L1.46008 72.1875L1.02205 70.6875L0.58403 69.125L0.292015 67.375L0.0730038 65.875L0 64.375V62.9375V61.1875L0.146008 59.8125L0.292015 58.5L0.438023 57.375L0.876046 55.5625L1.46008 53.6875L1.8981 52.125L2.99316 49.1875L3.8692 47.125L4.59924 45.5L5.32928 43.875L6.27833 41.875L6.64335 41.125V41L6.27833 39L5.54829 34.5L5.11027 31.375L4.67224 28.25L4.38023 25.75L4.08821 23.6875L3.94221 21.6875L3.8692 20L3.7962 17.875L3.65019 15.3125L3.50418 13.625L3.43118 11.75V9.625L3.35817 8L3.43118 6.375L3.50418 5.125L3.57719 3.5L3.72319 2.125L3.8692 1.4375L3.94221 0.9375L4.30722 0.4375L4.81825 0H4.96426H5.25627L5.54829 0.125L5.98631 0.5L7.00837 1.5625L7.59239 2.25L7.6654 2.5L11.1696 7.5L13.6517 11.125L14.8198 12.8125L16.2798 14.9375L18.543 17.9375L21.4631 21.9375L22.9232 23.6875L23.8722 24.9375L25.5513 27L26.4274 28.0625L27.2304 29L27.5954 29.5625L27.7414 29.5L29.1285 29.0625L30.8806 28.6875L32.9247 28.25L35.1878 27.9375L37.451 27.625L39.057 27.5L40.7361 27.375L42.4882 27.25L44.3863 27.1875L46.2114 27.125H48.9856L50.7376 27.1875H52.4167L54.3148 27.3125L55.7019 27.4375L57.746 27.6875L59.4981 27.9375L61.5422 28.3125L63.8053 28.8125L67.8205 26.5L72.5658 23.6875L73.7338 22.9375L74.9749 22.1875L75.851 21.5625L76.946 20.8125L79.2091 19.1875L88.2616 11.75L93.5909 6.875L93.8099 6.625L93.9559 6.5625H94.1019H94.3209H94.6129L94.8319 6.6875L95.124 7L95.416 7.75L95.635 8.75L95.781 9.875L95.927 12.5L96 15.125L95.781 16.9375V18L95.635 19L95.27 20.6875L94.9049 22.4375L94.5399 23.875L94.1019 25.5L93.6639 27.0625L93.2259 28.4375L92.5688 30.125L91.4008 33.125L90.6707 34.875L89.8677 36.75L89.2837 38.125L88.5536 39.875L88.0426 41.0625L87.9696 41.375V41.625L88.0426 42.3125L88.3346 43.25L89.4297 45.75L90.4517 48.4375L91.3278 51.0625L92.1308 53.9375L92.4958 55.625L92.8608 57.3125L93.0798 58.9375L93.3719 60.625L93.5909 62.1875L93.6639 63.25L93.8099 64V64.5625V67.625L93.7369 68.4375L93.6639 69.3125L93.5179 70.3125L93.2259 71.6875L92.8608 72.875L92.4228 74L91.7658 75.25L90.9627 76.4375L89.5757 78.125L87.5316 80.125L84.9764 82.25L83.8814 83L83.2973 83.375L82.2753 84.0625L81.2532 84.75L80.9612 84.875L80.8152 85L80.5232 85.125L76.143 87.5L72.7848 89.0625L69.7186 90.25L65.6304 91.625L62.7103 92.6875L61.3962 93.1875L59.9361 93.6875L57.819 94.5L57.162 94.6875L56.4319 94.9375L55.7749 95.1875L55.0449 95.375L54.4608 95.5L53.5848 95.6875L52.7087 95.8125Z"/>
</mask>
<path d="M52.7087 95.8125L51.9057 95.9375L50.9567 96H48.6205L47.5255 95.9375L45.3354 95.6875L43.3643 95.3125L41.5392 94.9375L39.7871 94.4375L38.108 93.9375L36.6479 93.5L35.0418 92.9375L32.8517 92.1875L31.0996 91.5625L29.0555 90.8125L27.4494 90.25L26.0624 89.6875L24.1643 88.9375L22.2662 88.1875L19.346 86.9375L17.5209 86.125L15.8418 85.4375L14.1627 84.625L12.7757 83.875L11.6076 83.3125L10.3665 82.5625L9.34449 81.9375L8.46844 81.3125L7.59239 80.6875L6.86236 80.125L5.8403 79.2734L5.03726 78.4375L4.16122 77.4375L3.28517 76.1875L2.26312 74.3125L1.46008 72.1875L1.02205 70.6875L0.58403 69.125L0.292015 67.375L0.0730038 65.875L0 64.375V62.9375V61.1875L0.146008 59.8125L0.292015 58.5L0.438023 57.375L0.876046 55.5625L1.46008 53.6875L1.8981 52.125L2.99316 49.1875L3.8692 47.125L4.59924 45.5L5.32928 43.875L6.27833 41.875L6.64335 41.125V41L6.27833 39L5.54829 34.5L5.11027 31.375L4.67224 28.25L4.38023 25.75L4.08821 23.6875L3.94221 21.6875L3.8692 20L3.7962 17.875L3.65019 15.3125L3.50418 13.625L3.43118 11.75V9.625L3.35817 8L3.43118 6.375L3.50418 5.125L3.57719 3.5L3.72319 2.125L3.8692 1.4375L3.94221 0.9375L4.30722 0.4375L4.81825 0H4.96426H5.25627L5.54829 0.125L5.98631 0.5L7.00837 1.5625L7.59239 2.25L7.6654 2.5L11.1696 7.5L13.6517 11.125L14.8198 12.8125L16.2798 14.9375L18.543 17.9375L21.4631 21.9375L22.9232 23.6875L23.8722 24.9375L25.5513 27L26.4274 28.0625L27.2304 29L27.5954 29.5625L27.7414 29.5L29.1285 29.0625L30.8806 28.6875L32.9247 28.25L35.1878 27.9375L37.451 27.625L39.057 27.5L40.7361 27.375L42.4882 27.25L44.3863 27.1875L46.2114 27.125H48.9856L50.7376 27.1875H52.4167L54.3148 27.3125L55.7019 27.4375L57.746 27.6875L59.4981 27.9375L61.5422 28.3125L63.8053 28.8125L67.8205 26.5L72.5658 23.6875L73.7338 22.9375L74.9749 22.1875L75.851 21.5625L76.946 20.8125L79.2091 19.1875L88.2616 11.75L93.5909 6.875L93.8099 6.625L93.9559 6.5625H94.1019H94.3209H94.6129L94.8319 6.6875L95.124 7L95.416 7.75L95.635 8.75L95.781 9.875L95.927 12.5L96 15.125L95.781 16.9375V18L95.635 19L95.27 20.6875L94.9049 22.4375L94.5399 23.875L94.1019 25.5L93.6639 27.0625L93.2259 28.4375L92.5688 30.125L91.4008 33.125L90.6707 34.875L89.8677 36.75L89.2837 38.125L88.5536 39.875L88.0426 41.0625L87.9696 41.375V41.625L88.0426 42.3125L88.3346 43.25L89.4297 45.75L90.4517 48.4375L91.3278 51.0625L92.1308 53.9375L92.4958 55.625L92.8608 57.3125L93.0798 58.9375L93.3719 60.625L93.5909 62.1875L93.6639 63.25L93.8099 64V64.5625V67.625L93.7369 68.4375L93.6639 69.3125L93.5179 70.3125L93.2259 71.6875L92.8608 72.875L92.4228 74L91.7658 75.25L90.9627 76.4375L89.5757 78.125L87.5316 80.125L84.9764 82.25L83.8814 83L83.2973 83.375L82.2753 84.0625L81.2532 84.75L80.9612 84.875L80.8152 85L80.5232 85.125L76.143 87.5L72.7848 89.0625L69.7186 90.25L65.6304 91.625L62.7103 92.6875L61.3962 93.1875L59.9361 93.6875L57.819 94.5L57.162 94.6875L56.4319 94.9375L55.7749 95.1875L55.0449 95.375L54.4608 95.5L53.5848 95.6875L52.7087 95.8125Z" fill="#1D1D1D" stroke="#F5F5F5" stroke-width="3" mask="url(#path-1-inside-1_407_148)"/>
<path d="M55.9202 55.619C55.9049 55.7723 55.8282 55.9027 55.6902 56.01C55.5676 56.1173 55.4986 56.2553 55.4832 56.424C55.3606 56.47 55.2302 56.516 55.0922 56.562C54.9696 56.608 54.8392 56.654 54.7012 56.7C53.8272 57.022 52.8459 57.3593 51.7572 57.712C50.6839 58.0647 49.5416 58.356 48.3302 58.586C47.1189 58.816 45.8769 58.908 44.6042 58.862C43.8222 58.8313 43.0479 58.7393 42.2812 58.586C41.5299 58.4173 40.9242 58.1337 40.4642 57.735C40.2956 57.413 40.2266 57.022 40.2572 56.562C40.3032 56.102 40.3952 55.619 40.5332 55.113C40.6866 54.607 40.8322 54.1317 40.9702 53.687C41.0162 53.549 41.0622 53.4187 41.1082 53.296C41.1542 53.158 41.1926 53.0353 41.2232 52.928C41.3459 52.4987 41.4609 52.077 41.5682 51.663C41.6756 51.2337 41.8059 50.8197 41.9592 50.421C42.0972 50.053 42.2582 49.685 42.4422 49.317C42.6416 48.949 42.8409 48.5887 43.0402 48.236C43.2089 47.8987 43.3929 47.5537 43.5922 47.201C43.7916 46.833 43.9986 46.488 44.2132 46.166C44.5352 45.6907 44.8726 45.2613 45.2252 44.878C45.5779 44.4947 45.9689 44.1573 46.3982 43.866C46.5209 43.7893 46.7202 43.7587 46.9962 43.774C47.2722 43.7893 47.5559 43.8277 47.8472 43.889C48.1539 43.9503 48.3839 44.027 48.5372 44.119C48.8439 44.2723 49.1352 44.5483 49.4112 44.947C49.6872 45.3457 49.9402 45.775 50.1702 46.235C50.4156 46.695 50.6226 47.1167 50.7912 47.5C50.9906 47.914 51.1746 48.3127 51.3432 48.696C51.5119 49.064 51.6576 49.478 51.7802 49.938C51.7956 49.9687 51.7879 49.9993 51.7572 50.03C51.7112 50.0453 51.7036 50.076 51.7342 50.122C51.5962 50.2907 51.4276 50.4517 51.2282 50.605C51.0289 50.7583 50.8372 50.8043 50.6532 50.743C50.4999 50.6817 50.3696 50.513 50.2622 50.237C50.1549 49.9457 50.0399 49.6773 49.9172 49.432C49.6872 48.9567 49.4649 48.4967 49.2502 48.052C49.0356 47.6073 48.7749 47.1703 48.4682 46.741C48.3302 46.557 48.1616 46.35 47.9622 46.12C47.7629 45.8747 47.6019 45.7443 47.4792 45.729C47.2492 45.7137 47.0576 45.798 46.9042 45.982C46.7662 46.1507 46.6282 46.3423 46.4902 46.557C46.3982 46.7257 46.2909 46.8867 46.1682 47.04C46.0609 47.1933 45.9306 47.3007 45.7772 47.362C45.3172 48.328 44.8419 49.294 44.3512 50.26C43.8606 51.2107 43.4159 52.215 43.0172 53.273C42.6339 54.3157 42.3502 55.4733 42.1662 56.746C42.6262 57.0527 43.1936 57.2597 43.8682 57.367C44.5582 57.459 45.2482 57.4897 45.9382 57.459C46.6436 57.4283 47.2416 57.3747 47.7322 57.298C48.6982 57.1447 49.6489 56.9453 50.5842 56.7C51.5349 56.4547 52.4549 56.2247 53.3442 56.01C54.2336 55.78 55.0922 55.6497 55.9202 55.619Z" fill="#F5F5F5"/>
<path d="M61.4695 75.875H60.1555L60.3745 75.0625L60.7395 73.5625L61.2505 71.8125L61.725 70.3125L62.5646 68.3125L63.3676 66.625L64.0977 65.5625L64.9007 64.4375L64.9737 64.5L65.1197 64.8125L65.3387 66.25L65.4117 66.625L65.5578 67.3125L65.7768 67.8125L65.8498 68.125L65.9228 68.5625L66.0688 69.0625L66.2148 69.5625L66.5068 70.4375L66.7258 71.125L66.8718 71.625L67.0178 72.0625L67.6019 73.4375L68.4049 75.0625L68.3319 75.125L67.6749 75.25L66.3608 75.4375L64.8277 75.625L63.1486 75.75L61.4695 75.875Z" fill="#F5F5F5"/>
<path d="M76.5083 60L74.6102 60.0625H74.5372H74.4642L74.6102 60.6875L74.8292 61.625L75.1212 62.8125L75.4133 64.125L75.7053 65.125L75.9243 66.6875L76.0703 67.8125V69.8125L75.9973 73.125H76.1433L77.6764 72.125L78.9174 71.125L80.1585 69.9375L81.3266 68.625L82.1296 67.5L83.0057 65.9375L83.8087 64.3125L84.2467 63.125L84.5387 62.3125L83.4437 61.875L81.9106 61.25L80.1585 60.6875L78.1874 60.1875L76.5083 60Z" fill="#F5F5F5"/>
<path d="M83.2247 37.6875L82.8596 37.8125H82.3486L81.6916 37.4375L80.9616 36.8125L80.5235 36.1875L80.3045 35.6875V34.9375L80.4505 34.5625L84.2011 30.3125L87.4589 26.5L88.5539 25.125L89.649 23.9375H89.795L89.941 24V25.1875L89.795 25.5L89.357 26.6875L88.919 28L88.1889 29.6875L87.1669 31.9375L86.6558 33L86.2178 33.75L85.7798 34.5L85.1228 35.625L84.6482 36.3125L84.2467 36.8125L83.8817 37.25L83.4437 37.5625L83.2247 37.6875Z" fill="#F5F5F5"/>
<path d="M11.8269 34.9375H10.8049L10.5859 34.875L10.2939 34.625L10.0749 34.25L9.78284 33.6875L9.41782 32.625L9.12581 31.6875L8.9798 30.8125L8.83379 30.125L8.61478 28.875L8.46877 27.375L8.32277 26.5L8.24976 24.8125L8.17676 22.8125L8.24976 21.9375L8.39577 21.25L8.46877 21H8.68778L8.83379 21.125L9.12581 22.125L9.49083 23.3125L9.85585 24.5625L10.3669 25.9375L10.8049 27.0625L11.0969 27.9375L11.4619 28.875L11.7539 29.5L12.119 30.4375L12.411 31.0625L12.63 31.625L12.849 32.125L13.068 32.75L13.214 33.25L13.287 33.5L13.141 33.875L12.703 34.375L11.8269 34.9375Z" fill="#F5F5F5"/>
<path d="M29.7859 75.75L29.2019 75.6875L29.8589 73.75L30.2969 72.125L30.8079 70.1875L31.1 68.6875L31.392 67.25L31.4923 66.3125L31.611 65.1875L31.684 64.8125H31.757L32.779 65.9375L33.2901 66.625L33.8741 67.5625L34.4581 68.5625L35.1882 70.0625L35.7722 71.4375L36.2102 72.6875L36.6482 73.75L36.9403 74.75L37.1593 75.4375L37.3053 75.8125L37.3783 76H33.8741L32.195 75.9375L30.7349 75.8125L29.7859 75.75Z" fill="#F5F5F5"/>
<path d="M21.1714 72.4375L21.3174 73.1875H21.0254L20.8794 73.0625L18.3973 71.5L16.4262 69.8125L15.1851 68.5625L14.3091 67.4375L13.6292 66.3125L12.922 65L12.411 63.75L12.192 63.125L12.119 62.8125L12.703 62.4375L14.6011 61.625L16.3532 61L18.0323 60.5L19.6384 60.1875L21.0254 60L21.5365 59.9375L21.6825 60.0625L21.8285 60.1875L21.9745 60.25L21.9015 60.5625L21.6095 61.5L21.1714 63.875L21.0254 65.375L20.9524 67.5V69.875L21.0254 71.5L21.1714 72.4375Z" fill="#F5F5F5"/>
<path d="M61.4695 75.875H60.1555L60.3745 75.0625L60.7395 73.5625L61.2505 71.8125L61.725 70.3125L62.5646 68.3125L63.3676 66.625L64.0977 65.5625L64.9007 64.4375L64.9737 64.5L65.1197 64.8125L65.3387 66.25L65.4117 66.625L65.5578 67.3125L65.7768 67.8125L65.8498 68.125L65.9228 68.5625L66.0688 69.0625L66.2148 69.5625L66.5068 70.4375L66.7258 71.125L66.8718 71.625L67.0178 72.0625L67.6019 73.4375L68.4049 75.0625L68.3319 75.125L67.6749 75.25L66.3608 75.4375L64.8277 75.625L63.1486 75.75L61.4695 75.875Z" stroke="#F5F5F5" stroke-width="0.5"/>
<path d="M76.5083 60L74.6102 60.0625H74.5372H74.4642L74.6102 60.6875L74.8292 61.625L75.1212 62.8125L75.4133 64.125L75.7053 65.125L75.9243 66.6875L76.0703 67.8125V69.8125L75.9973 73.125H76.1433L77.6764 72.125L78.9174 71.125L80.1585 69.9375L81.3266 68.625L82.1296 67.5L83.0057 65.9375L83.8087 64.3125L84.2467 63.125L84.5387 62.3125L83.4437 61.875L81.9106 61.25L80.1585 60.6875L78.1874 60.1875L76.5083 60Z" stroke="#F5F5F5" stroke-width="0.5"/>
<path d="M83.2247 37.6875L82.8596 37.8125H82.3486L81.6916 37.4375L80.9616 36.8125L80.5235 36.1875L80.3045 35.6875V34.9375L80.4505 34.5625L84.2011 30.3125L87.4589 26.5L88.5539 25.125L89.649 23.9375H89.795L89.941 24V25.1875L89.795 25.5L89.357 26.6875L88.919 28L88.1889 29.6875L87.1669 31.9375L86.6558 33L86.2178 33.75L85.7798 34.5L85.1228 35.625L84.6482 36.3125L84.2467 36.8125L83.8817 37.25L83.4437 37.5625L83.2247 37.6875Z" stroke="#F5F5F5" stroke-width="0.5"/>
<path d="M11.8269 34.9375H10.8049L10.5859 34.875L10.2939 34.625L10.0749 34.25L9.78284 33.6875L9.41782 32.625L9.12581 31.6875L8.9798 30.8125L8.83379 30.125L8.61478 28.875L8.46877 27.375L8.32277 26.5L8.24976 24.8125L8.17676 22.8125L8.24976 21.9375L8.39577 21.25L8.46877 21H8.68778L8.83379 21.125L9.12581 22.125L9.49083 23.3125L9.85585 24.5625L10.3669 25.9375L10.8049 27.0625L11.0969 27.9375L11.4619 28.875L11.7539 29.5L12.119 30.4375L12.411 31.0625L12.63 31.625L12.849 32.125L13.068 32.75L13.214 33.25L13.287 33.5L13.141 33.875L12.703 34.375L11.8269 34.9375Z" stroke="#F5F5F5" stroke-width="0.5"/>
<path d="M29.7859 75.75L29.2019 75.6875L29.8589 73.75L30.2969 72.125L30.8079 70.1875L31.1 68.6875L31.392 67.25L31.4923 66.3125L31.611 65.1875L31.684 64.8125H31.757L32.779 65.9375L33.2901 66.625L33.8741 67.5625L34.4581 68.5625L35.1882 70.0625L35.7722 71.4375L36.2102 72.6875L36.6482 73.75L36.9403 74.75L37.1593 75.4375L37.3053 75.8125L37.3783 76H33.8741L32.195 75.9375L30.7349 75.8125L29.7859 75.75Z" stroke="#F5F5F5" stroke-width="0.5"/>
<path d="M21.1714 72.4375L21.3174 73.1875H21.0254L20.8794 73.0625L18.3973 71.5L16.4262 69.8125L15.1851 68.5625L14.3091 67.4375L13.6292 66.3125L12.922 65L12.411 63.75L12.192 63.125L12.119 62.8125L12.703 62.4375L14.6011 61.625L16.3532 61L18.0323 60.5L19.6384 60.1875L21.0254 60L21.5365 59.9375L21.6825 60.0625L21.8285 60.1875L21.9745 60.25L21.9015 60.5625L21.6095 61.5L21.1714 63.875L21.0254 65.375L20.9524 67.5V69.875L21.0254 71.5L21.1714 72.4375Z" stroke="#F5F5F5" stroke-width="0.5"/>
</svg>
