<svg viewBox="0 0 72 72" fill="none" xmlns="http://www.w3.org/2000/svg">
<mask id="path-1-inside-1_440_130" fill="white">
<path d="M39.5316 71.8594L38.9293 71.9531L38.2175 72H36.4654L35.6441 71.9531L34.0015 71.7656L32.5232 71.4844L31.1544 71.2031L29.8403 70.8281L28.581 70.4531L27.4859 70.125L26.2814 69.7031L24.6388 69.1406L23.3247 68.6719L21.7916 68.1094L20.5871 67.6875L19.5468 67.2656L18.1232 66.7031L16.6996 66.1406L14.5095 65.2031L13.1407 64.5938L11.8814 64.0781L10.6221 63.4688L9.58175 62.9063L8.7057 62.4844L7.77491 61.9219L7.00836 61.4531L6.35133 60.9844L5.6943 60.5156L5.14677 60.0938L4.38023 59.4551L3.77795 58.8281L3.12091 58.0781L2.46388 57.1406L1.69734 55.7344L1.09506 54.1406L0.76654 53.0156L0.438023 51.8438L0.219011 50.5313L0.0547528 49.4063L0 48.2813V47.2031V45.8906L0.109506 44.8594L0.219011 43.875L0.328517 43.0312L0.657034 41.6719L1.09506 40.2656L1.42357 39.0938L2.24487 36.8906L2.9019 35.3438L3.44943 34.125L3.99696 32.9062L4.70875 31.4063L4.98251 30.8438V30.75L4.70875 29.25L4.16122 25.875L3.8327 23.5313L3.50418 21.1875L3.28517 19.3125L3.06616 17.7656L2.95665 16.2656L2.9019 15L2.84715 13.4063L2.73764 11.4844L2.62814 10.2188L2.57338 8.8125V7.21875L2.51863 6L2.57338 4.78125L2.62814 3.84375L2.68289 2.625L2.7924 1.59375L2.9019 1.07813L2.95665 0.703125L3.23042 0.328125L3.61369 0H3.72319H3.94221L4.16122 0.09375L4.48973 0.375L5.25627 1.17188L5.6943 1.6875L5.74905 1.875L8.37719 5.625L10.2388 8.34375L11.1148 9.60938L12.2099 11.2031L13.9072 13.4531L16.0973 16.4531L17.1924 17.7656L17.9042 18.7031L19.1635 20.25L19.8205 21.0469L20.4228 21.75L20.6966 22.1719L20.8061 22.125L21.8464 21.7969L23.1605 21.5156L24.6935 21.1875L26.3909 20.9531L28.0882 20.7188L29.2928 20.625L30.5521 20.5312L31.8662 20.4375L33.2897 20.3906L34.6586 20.3438H36.7392L38.0532 20.3906H39.3125L40.7361 20.4844L41.7764 20.5781L43.3095 20.7656L44.6236 20.9531L46.1567 21.2344L47.854 21.6094L50.8654 19.875L54.4243 17.7656L55.3004 17.2031L56.2312 16.6406L56.8882 16.1719L57.7095 15.6094L59.4068 14.3906L66.1962 8.8125L70.1932 5.15625L70.3574 4.96875L70.4669 4.92188H70.5764H70.7407H70.9597L71.124 5.01563L71.343 5.25L71.562 5.8125L71.7262 6.5625L71.8357 7.40625L71.9452 9.375L72 11.3438L71.8357 12.7031V13.5L71.7262 14.25L71.4525 15.5156L71.1787 16.8281L70.9049 17.9063L70.5764 19.125L70.2479 20.2969L69.9194 21.3281L69.4266 22.5938L68.5506 24.8438L68.003 26.1562L67.4008 27.5625L66.9627 28.5938L66.4152 29.9063L66.0319 30.7969L65.9772 31.0313V31.2188L66.0319 31.7344L66.2509 32.4375L67.0722 34.3125L67.8388 36.3281L68.4958 38.2969L69.0981 40.4531L69.3719 41.7188L69.6456 42.9844L69.8099 44.2031L70.0289 45.4688L70.1932 46.6406L70.2479 47.4375L70.3574 48V48.4219V50.7188L70.3027 51.3281L70.2479 51.9844L70.1384 52.7344L69.9194 53.7656L69.6456 54.6563L69.3171 55.5L68.8243 56.4375L68.2221 57.3281L67.1817 58.5938L65.6487 60.0938L63.7323 61.6875L62.911 62.25L62.473 62.5313L61.7065 63.0469L60.9399 63.5625L60.7209 63.6563L60.6114 63.75L60.3924 63.8438L57.1072 65.625L54.5886 66.7969L52.289 67.6875L49.2228 68.7188L47.0327 69.5156L46.0471 69.8906L44.9521 70.2656L43.3643 70.875L42.8715 71.0156L42.324 71.2031L41.8312 71.3906L41.2836 71.5313L40.8456 71.625L40.1886 71.7656L39.5316 71.8594Z"/>
</mask>
<path d="M39.5316 71.8594L38.9293 71.9531L38.2175 72H36.4654L35.6441 71.9531L34.0015 71.7656L32.5232 71.4844L31.1544 71.2031L29.8403 70.8281L28.581 70.4531L27.4859 70.125L26.2814 69.7031L24.6388 69.1406L23.3247 68.6719L21.7916 68.1094L20.5871 67.6875L19.5468 67.2656L18.1232 66.7031L16.6996 66.1406L14.5095 65.2031L13.1407 64.5938L11.8814 64.0781L10.6221 63.4688L9.58175 62.9063L8.7057 62.4844L7.77491 61.9219L7.00836 61.4531L6.35133 60.9844L5.6943 60.5156L5.14677 60.0938L4.38023 59.4551L3.77795 58.8281L3.12091 58.0781L2.46388 57.1406L1.69734 55.7344L1.09506 54.1406L0.76654 53.0156L0.438023 51.8438L0.219011 50.5313L0.0547528 49.4063L0 48.2813V47.2031V45.8906L0.109506 44.8594L0.219011 43.875L0.328517 43.0312L0.657034 41.6719L1.09506 40.2656L1.42357 39.0938L2.24487 36.8906L2.9019 35.3438L3.44943 34.125L3.99696 32.9062L4.70875 31.4063L4.98251 30.8438V30.75L4.70875 29.25L4.16122 25.875L3.8327 23.5313L3.50418 21.1875L3.28517 19.3125L3.06616 17.7656L2.95665 16.2656L2.9019 15L2.84715 13.4063L2.73764 11.4844L2.62814 10.2188L2.57338 8.8125V7.21875L2.51863 6L2.57338 4.78125L2.62814 3.84375L2.68289 2.625L2.7924 1.59375L2.9019 1.07813L2.95665 0.703125L3.23042 0.328125L3.61369 0H3.72319H3.94221L4.16122 0.09375L4.48973 0.375L5.25627 1.17188L5.6943 1.6875L5.74905 1.875L8.37719 5.625L10.2388 8.34375L11.1148 9.60938L12.2099 11.2031L13.9072 13.4531L16.0973 16.4531L17.1924 17.7656L17.9042 18.7031L19.1635 20.25L19.8205 21.0469L20.4228 21.75L20.6966 22.1719L20.8061 22.125L21.8464 21.7969L23.1605 21.5156L24.6935 21.1875L26.3909 20.9531L28.0882 20.7188L29.2928 20.625L30.5521 20.5312L31.8662 20.4375L33.2897 20.3906L34.6586 20.3438H36.7392L38.0532 20.3906H39.3125L40.7361 20.4844L41.7764 20.5781L43.3095 20.7656L44.6236 20.9531L46.1567 21.2344L47.854 21.6094L50.8654 19.875L54.4243 17.7656L55.3004 17.2031L56.2312 16.6406L56.8882 16.1719L57.7095 15.6094L59.4068 14.3906L66.1962 8.8125L70.1932 5.15625L70.3574 4.96875L70.4669 4.92188H70.5764H70.7407H70.9597L71.124 5.01563L71.343 5.25L71.562 5.8125L71.7262 6.5625L71.8357 7.40625L71.9452 9.375L72 11.3438L71.8357 12.7031V13.5L71.7262 14.25L71.4525 15.5156L71.1787 16.8281L70.9049 17.9063L70.5764 19.125L70.2479 20.2969L69.9194 21.3281L69.4266 22.5938L68.5506 24.8438L68.003 26.1562L67.4008 27.5625L66.9627 28.5938L66.4152 29.9063L66.0319 30.7969L65.9772 31.0313V31.2188L66.0319 31.7344L66.2509 32.4375L67.0722 34.3125L67.8388 36.3281L68.4958 38.2969L69.0981 40.4531L69.3719 41.7188L69.6456 42.9844L69.8099 44.2031L70.0289 45.4688L70.1932 46.6406L70.2479 47.4375L70.3574 48V48.4219V50.7188L70.3027 51.3281L70.2479 51.9844L70.1384 52.7344L69.9194 53.7656L69.6456 54.6563L69.3171 55.5L68.8243 56.4375L68.2221 57.3281L67.1817 58.5938L65.6487 60.0938L63.7323 61.6875L62.911 62.25L62.473 62.5313L61.7065 63.0469L60.9399 63.5625L60.7209 63.6563L60.6114 63.75L60.3924 63.8438L57.1072 65.625L54.5886 66.7969L52.289 67.6875L49.2228 68.7188L47.0327 69.5156L46.0471 69.8906L44.9521 70.2656L43.3643 70.875L42.8715 71.0156L42.324 71.2031L41.8312 71.3906L41.2836 71.5313L40.8456 71.625L40.1886 71.7656L39.5316 71.8594Z" fill="#1D1D1D" stroke="#F5F5F5" stroke-width="3" mask="url(#path-1-inside-1_440_130)"/>
<path d="M44.0452 42.619C44.0299 42.7723 43.9532 42.9027 43.8152 43.01C43.6926 43.1173 43.6236 43.2553 43.6082 43.424C43.4856 43.47 43.3552 43.516 43.2172 43.562C43.0946 43.608 42.9642 43.654 42.8262 43.7C41.9522 44.022 40.9709 44.3593 39.8822 44.712C38.8089 45.0647 37.6666 45.356 36.4552 45.586C35.2439 45.816 34.0019 45.908 32.7292 45.862C31.9472 45.8313 31.1729 45.7393 30.4062 45.586C29.6549 45.4173 29.0492 45.1337 28.5892 44.735C28.4206 44.413 28.3516 44.022 28.3822 43.562C28.4282 43.102 28.5202 42.619 28.6582 42.113C28.8116 41.607 28.9572 41.1317 29.0952 40.687C29.1412 40.549 29.1872 40.4187 29.2332 40.296C29.2792 40.158 29.3176 40.0353 29.3482 39.928C29.4709 39.4987 29.5859 39.077 29.6932 38.663C29.8006 38.2337 29.9309 37.8197 30.0842 37.421C30.2222 37.053 30.3832 36.685 30.5672 36.317C30.7666 35.949 30.9659 35.5887 31.1652 35.236C31.3339 34.8987 31.5179 34.5537 31.7172 34.201C31.9166 33.833 32.1236 33.488 32.3382 33.166C32.6602 32.6907 32.9976 32.2613 33.3502 31.878C33.7029 31.4947 34.0939 31.1573 34.5232 30.866C34.6459 30.7893 34.8452 30.7587 35.1212 30.774C35.3972 30.7893 35.6809 30.8277 35.9722 30.889C36.2789 30.9503 36.5089 31.027 36.6622 31.119C36.9689 31.2723 37.2602 31.5483 37.5362 31.947C37.8122 32.3457 38.0652 32.775 38.2952 33.235C38.5406 33.695 38.7476 34.1167 38.9162 34.5C39.1156 34.914 39.2996 35.3127 39.4682 35.696C39.6369 36.064 39.7826 36.478 39.9052 36.938C39.9206 36.9687 39.9129 36.9993 39.8822 37.03C39.8362 37.0453 39.8286 37.076 39.8592 37.122C39.7212 37.2907 39.5526 37.4517 39.3532 37.605C39.1539 37.7583 38.9622 37.8043 38.7782 37.743C38.6249 37.6817 38.4946 37.513 38.3872 37.237C38.2799 36.9457 38.1649 36.6773 38.0422 36.432C37.8122 35.9567 37.5899 35.4967 37.3752 35.052C37.1606 34.6073 36.8999 34.1703 36.5932 33.741C36.4552 33.557 36.2866 33.35 36.0872 33.12C35.8879 32.8747 35.7269 32.7443 35.6042 32.729C35.3742 32.7137 35.1826 32.798 35.0292 32.982C34.8912 33.1507 34.7532 33.3423 34.6152 33.557C34.5232 33.7257 34.4159 33.8867 34.2932 34.04C34.1859 34.1933 34.0556 34.3007 33.9022 34.362C33.4422 35.328 32.9669 36.294 32.4762 37.26C31.9856 38.2107 31.5409 39.215 31.1422 40.273C30.7589 41.3157 30.4752 42.4733 30.2912 43.746C30.7512 44.0527 31.3186 44.2597 31.9932 44.367C32.6832 44.459 33.3732 44.4897 34.0632 44.459C34.7686 44.4283 35.3666 44.3747 35.8572 44.298C36.8232 44.1447 37.7739 43.9453 38.7092 43.7C39.6599 43.4547 40.5799 43.2247 41.4692 43.01C42.3586 42.78 43.2172 42.6497 44.0452 42.619Z" fill="#F5F5F5"/>
<path d="M46.1022 56.9062H45.1166L45.2809 56.2969L45.5546 55.1719L45.9379 53.8594L46.2938 52.7344L46.9234 51.2344L47.5257 49.9688L48.0733 49.1719L48.6755 48.3281L48.7303 48.375L48.8398 48.6094L49.0041 49.6875L49.0588 49.9688L49.1683 50.4844L49.3326 50.8594L49.3873 51.0938L49.4421 51.4219L49.5516 51.7969L49.6611 52.1719L49.8801 52.8281L50.0444 53.3438L50.1539 53.7188L50.2634 54.0469L50.7014 55.0781L51.3037 56.2969L51.2489 56.3438L50.7561 56.4375L49.7706 56.5781L48.6208 56.7188L47.3615 56.8125L46.1022 56.9062Z" fill="#F5F5F5"/>
<path d="M57.3812 45L55.9577 45.0469H55.9029H55.8482L55.9577 45.5156L56.1219 46.2188L56.3409 47.1094L56.5599 48.0938L56.779 48.8438L56.9432 50.0156L57.0527 50.8594V52.3594L56.998 54.8438H57.1075L58.2573 54.0938L59.1881 53.3438L60.1189 52.4531L60.9949 51.4688L61.5972 50.625L62.2542 49.4531L62.8565 48.2344L63.185 47.3438L63.4041 46.7344L62.5828 46.4062L61.433 45.9375L60.1189 45.5156L58.6406 45.1406L57.3812 45Z" fill="#F5F5F5"/>
<path d="M62.4185 28.2656L62.1447 28.3594H61.7615L61.2687 28.0781L60.7212 27.6094L60.3927 27.1406L60.2284 26.7656V26.2031L60.3379 25.9219L63.1508 22.7344L65.5942 19.875L66.4155 18.8438L67.2368 17.9531H67.3463L67.4558 18V18.8906L67.3463 19.125L67.0177 20.0156L66.6892 21L66.1417 22.2656L65.3752 23.9531L64.9919 24.75L64.6634 25.3125L64.3349 25.875L63.8421 26.7188L63.4862 27.2344L63.185 27.6094L62.9113 27.9375L62.5828 28.1719L62.4185 28.2656Z" fill="#F5F5F5"/>
<path d="M8.87021 26.2031H8.10367L7.93941 26.1562L7.7204 25.9688L7.55614 25.6875L7.33713 25.2656L7.06337 24.4688L6.84436 23.7656L6.73485 23.1094L6.62534 22.5938L6.46109 21.6562L6.35158 20.5312L6.24207 19.875L6.18732 18.6094L6.13257 17.1094L6.18732 16.4531L6.29683 15.9375L6.35158 15.75H6.51584L6.62534 15.8438L6.84436 16.5938L7.11812 17.4844L7.39188 18.4219L7.77515 19.4531L8.10367 20.2969L8.32268 20.9531L8.59645 21.6562L8.81546 22.125L9.08922 22.8281L9.30823 23.2969L9.47249 23.7188L9.63675 24.0938L9.80101 24.5625L9.91052 24.9375L9.96527 25.125L9.85576 25.4062L9.52725 25.7812L8.87021 26.2031Z" fill="#F5F5F5"/>
<path d="M22.3394 56.8125L21.9014 56.7656L22.3942 55.3125L22.7227 54.0938L23.106 52.6406L23.325 51.5156L23.544 50.4375L23.6193 49.7344L23.7082 48.8906L23.763 48.6094H23.8177L24.5843 49.4531L24.9676 49.9688L25.4056 50.6719L25.8436 51.4219L26.3911 52.5469L26.8291 53.5781L27.1577 54.5156L27.4862 55.3125L27.7052 56.0625L27.8695 56.5781L27.979 56.8594L28.0337 57H25.4056L24.1463 56.9531L23.0512 56.8594L22.3394 56.8125Z" fill="#F5F5F5"/>
<path d="M15.8786 54.3281L15.9881 54.8906H15.7691L15.6596 54.7969L13.798 53.625L12.3196 52.3594L11.3888 51.4219L10.7318 50.5781L10.2219 49.7344L9.6915 48.75L9.30823 47.8125L9.14398 47.3438L9.08922 47.1094L9.52725 46.8281L10.9508 46.2188L12.2649 45.75L13.5242 45.375L14.7288 45.1406L15.7691 45L16.1523 44.9531L16.2618 45.0469L16.3714 45.1406L16.4809 45.1875L16.4261 45.4219L16.2071 46.125L15.8786 47.9062L15.7691 49.0312L15.7143 50.625V52.4062L15.7691 53.625L15.8786 54.3281Z" fill="#F5F5F5"/>
<path d="M46.1022 56.9062H45.1166L45.2809 56.2969L45.5546 55.1719L45.9379 53.8594L46.2938 52.7344L46.9234 51.2344L47.5257 49.9688L48.0733 49.1719L48.6755 48.3281L48.7303 48.375L48.8398 48.6094L49.0041 49.6875L49.0588 49.9688L49.1683 50.4844L49.3326 50.8594L49.3873 51.0938L49.4421 51.4219L49.5516 51.7969L49.6611 52.1719L49.8801 52.8281L50.0444 53.3438L50.1539 53.7188L50.2634 54.0469L50.7014 55.0781L51.3037 56.2969L51.2489 56.3438L50.7561 56.4375L49.7706 56.5781L48.6208 56.7188L47.3615 56.8125L46.1022 56.9062Z" stroke="#F5F5F5" stroke-width="0.5"/>
<path d="M57.3812 45L55.9577 45.0469H55.9029H55.8482L55.9577 45.5156L56.1219 46.2188L56.3409 47.1094L56.5599 48.0938L56.779 48.8438L56.9432 50.0156L57.0527 50.8594V52.3594L56.998 54.8438H57.1075L58.2573 54.0938L59.1881 53.3438L60.1189 52.4531L60.9949 51.4688L61.5972 50.625L62.2542 49.4531L62.8565 48.2344L63.185 47.3438L63.4041 46.7344L62.5828 46.4062L61.433 45.9375L60.1189 45.5156L58.6406 45.1406L57.3812 45Z" stroke="#F5F5F5" stroke-width="0.5"/>
<path d="M62.4185 28.2656L62.1447 28.3594H61.7615L61.2687 28.0781L60.7212 27.6094L60.3927 27.1406L60.2284 26.7656V26.2031L60.3379 25.9219L63.1508 22.7344L65.5942 19.875L66.4155 18.8438L67.2368 17.9531H67.3463L67.4558 18V18.8906L67.3463 19.125L67.0177 20.0156L66.6892 21L66.1417 22.2656L65.3752 23.9531L64.9919 24.75L64.6634 25.3125L64.3349 25.875L63.8421 26.7188L63.4862 27.2344L63.185 27.6094L62.9113 27.9375L62.5828 28.1719L62.4185 28.2656Z" stroke="#F5F5F5" stroke-width="0.5"/>
<path d="M8.87021 26.2031H8.10367L7.93941 26.1562L7.7204 25.9688L7.55614 25.6875L7.33713 25.2656L7.06337 24.4688L6.84436 23.7656L6.73485 23.1094L6.62534 22.5938L6.46109 21.6562L6.35158 20.5312L6.24207 19.875L6.18732 18.6094L6.13257 17.1094L6.18732 16.4531L6.29683 15.9375L6.35158 15.75H6.51584L6.62534 15.8438L6.84436 16.5938L7.11812 17.4844L7.39188 18.4219L7.77515 19.4531L8.10367 20.2969L8.32268 20.9531L8.59645 21.6562L8.81546 22.125L9.08922 22.8281L9.30823 23.2969L9.47249 23.7188L9.63675 24.0938L9.80101 24.5625L9.91052 24.9375L9.96527 25.125L9.85576 25.4062L9.52725 25.7812L8.87021 26.2031Z" stroke="#F5F5F5" stroke-width="0.5"/>
<path d="M22.3394 56.8125L21.9014 56.7656L22.3942 55.3125L22.7227 54.0938L23.106 52.6406L23.325 51.5156L23.544 50.4375L23.6193 49.7344L23.7082 48.8906L23.763 48.6094H23.8177L24.5843 49.4531L24.9676 49.9688L25.4056 50.6719L25.8436 51.4219L26.3911 52.5469L26.8291 53.5781L27.1577 54.5156L27.4862 55.3125L27.7052 56.0625L27.8695 56.5781L27.979 56.8594L28.0337 57H25.4056L24.1463 56.9531L23.0512 56.8594L22.3394 56.8125Z" stroke="#F5F5F5" stroke-width="0.5"/>
<path d="M15.8786 54.3281L15.9881 54.8906H15.7691L15.6596 54.7969L13.798 53.625L12.3196 52.3594L11.3888 51.4219L10.7318 50.5781L10.2219 49.7344L9.6915 48.75L9.30823 47.8125L9.14398 47.3438L9.08922 47.1094L9.52725 46.8281L10.9508 46.2188L12.2649 45.75L13.5242 45.375L14.7288 45.1406L15.7691 45L16.1523 44.9531L16.2618 45.0469L16.3714 45.1406L16.4809 45.1875L16.4261 45.4219L16.2071 46.125L15.8786 47.9062L15.7691 49.0312L15.7143 50.625V52.4062L15.7691 53.625L15.8786 54.3281Z" stroke="#F5F5F5" stroke-width="0.5"/>
</svg>
