<?xml version="1.0" standalone="no"?>
<!DOCTYPE svg PUBLIC "-//W3C//DTD SVG 20010904//EN"
 "http://www.w3.org/TR/2001/REC-SVG-20010904/DTD/svg10.dtd">
<svg version="1.0" xmlns="http://www.w3.org/2000/svg"
 width="700.000000pt" height="700.000000pt" viewBox="0 0 700.000000 700.000000"
 preserveAspectRatio="xMidYMid meet">
<metadata>
Created by potrace 1.14, written by Peter Selinger 2001-2017
</metadata>
<g transform="translate(0.000000,700.000000) scale(0.100000,-0.100000)"
fill="#000000" stroke="none">
<path d="M318 6970 c-16 -17 -28 -35 -28 -40 0 -14 0 -17 -10 -50 -8 -29 -15
-92 -26 -250 -5 -82 -5 -543 1 -600 5 -56 15 -207 20 -320 17 -370 20 -424 31
-495 3 -22 7 -51 9 -65 8 -56 15 -108 20 -160 4 -30 10 -84 15 -120 5 -36 11
-81 14 -100 5 -32 42 -290 51 -349 2 -14 6 -42 9 -62 3 -20 13 -78 21 -130 23
-134 24 -141 31 -174 10 -47 8 -53 -49 -175 -163 -345 -263 -591 -314 -769
-63 -221 -82 -295 -88 -348 -4 -32 -9 -71 -12 -88 -9 -58 -11 -451 -2 -510 5
-33 11 -78 14 -101 16 -108 62 -277 109 -401 127 -334 351 -548 836 -801 74
-38 176 -87 225 -107 50 -20 115 -48 145 -62 112 -51 282 -123 412 -173 73
-29 151 -60 173 -70 22 -10 60 -25 85 -33 25 -9 90 -32 145 -52 395 -145 786
-271 915 -296 58 -11 89 -17 171 -34 37 -8 102 -18 145 -22 99 -10 383 -10
449 -1 184 27 208 35 825 261 69 25 213 76 320 112 107 37 214 76 237 86 23
10 45 19 48 19 16 0 346 160 505 246 144 77 390 235 470 303 30 25 61 50 68
56 50 40 224 207 249 240 17 22 40 49 50 60 79 89 175 285 197 405 3 19 8 46
11 60 17 79 23 187 20 365 -2 110 -5 211 -8 225 -2 14 -8 52 -12 85 -4 33 -11
76 -15 95 -5 19 -12 60 -15 90 -3 30 -15 100 -26 155 -12 55 -23 111 -25 125
-11 53 -85 310 -118 405 -47 137 -78 218 -142 366 -82 190 -85 169 79 554 216
510 257 620 325 880 95 359 116 501 116 770 -1 500 -56 632 -205 492 -61 -57
-220 -203 -284 -261 -41 -37 -221 -187 -509 -424 -171 -142 -170 -140 -231
-188 -197 -154 -622 -420 -1066 -667 l-46 -26 -148 30 c-82 16 -164 32 -184
34 -20 3 -49 7 -66 10 -16 3 -52 7 -80 10 -27 3 -66 7 -85 10 -210 29 -803 35
-1091 11 -35 -3 -100 -8 -144 -11 -79 -6 -165 -15 -196 -20 -8 -2 -42 -6 -75
-9 -32 -4 -66 -8 -74 -11 -8 -2 -35 -6 -60 -9 -25 -3 -56 -8 -70 -11 -14 -2
-48 -9 -76 -15 -28 -6 -61 -13 -75 -15 -13 -3 -58 -14 -99 -26 -104 -29 -130
-33 -130 -21 0 6 -17 30 -37 54 -134 156 -305 370 -445 557 -333 443 -354 473
-643 896 -38 55 -122 176 -187 268 -65 93 -125 181 -133 195 -17 33 -125 146
-153 161 -33 18 -55 13 -84 -19z"/>
</g>
</svg>
