<svg xmlns="http://www.w3.org/2000/svg" fill="none" viewBox="0 0 100 100"><path fill="#2496ed" d="M99.014 41.089c-.271-.215-2.803-2.127-8.143-2.127a26 26 0 0 0-4.207.361c-1.033-7.083-6.89-10.536-7.152-10.691l-1.433-.827-.944 1.36a19.2 19.2 0 0 0-2.549 5.96c-.956 4.044-.374 7.841 1.68 11.088-2.48 1.382-6.46 1.722-7.264 1.752H3.13A3.13 3.13 0 0 0 .004 51.08 47.4 47.4 0 0 0 2.89 68.005c2.27 5.95 5.645 10.334 10.037 13.017 4.922 3.014 12.918 4.736 21.982 4.736a65.6 65.6 0 0 0 12.207-1.106 51 51 0 0 0 15.932-5.788 43.8 43.8 0 0 0 10.872-8.9c5.219-5.908 8.328-12.487 10.64-18.334h.922c5.713 0 9.227-2.287 11.165-4.203a12.2 12.2 0 0 0 2.945-4.362l.409-1.197z"/><path fill="#2496ed" d="M9.236 46.036h8.827a.77.77 0 0 0 .77-.77v-7.863a.77.77 0 0 0-.766-.775H9.236a.77.77 0 0 0-.77.77v7.868c0 .425.344.77.77.77M21.4 46.036h8.827a.77.77 0 0 0 .771-.77v-7.863a.77.77 0 0 0-.767-.775H21.4a.775.775 0 0 0-.775.775v7.863c.003.426.349.77.775.77M33.75 46.036h8.826a.77.77 0 0 0 .771-.77v-7.863a.77.77 0 0 0-.766-.775h-8.832a.77.77 0 0 0-.77.77v7.868c0 .425.345.77.77.77M45.952 46.036h8.827a.775.775 0 0 0 .775-.77v-7.863a.775.775 0 0 0-.775-.775h-8.827a.77.77 0 0 0-.77.77v7.868c0 .425.345.77.77.77M21.4 34.725h8.827a.775.775 0 0 0 .77-.775v-7.863a.77.77 0 0 0-.77-.77H21.4a.775.775 0 0 0-.775.77v7.863a.78.78 0 0 0 .775.775M33.75 34.725h8.826a.775.775 0 0 0 .771-.775v-7.863a.77.77 0 0 0-.77-.77h-8.828a.77.77 0 0 0-.77.77v7.863c0 .426.344.772.77.775M45.952 34.725h8.827a.78.78 0 0 0 .775-.775v-7.863a.775.775 0 0 0-.775-.77h-8.827a.77.77 0 0 0-.77.77v7.863c0 .426.344.772.77.775M45.952 23.41h8.827a.775.775 0 0 0 .775-.772v-7.867a.775.775 0 0 0-.775-.77h-8.827a.77.77 0 0 0-.77.77v7.867c0 .426.345.771.77.771M58.263 46.036h8.827a.775.775 0 0 0 .775-.77v-7.863a.775.775 0 0 0-.775-.775h-8.827a.77.77 0 0 0-.77.77v7.868c0 .425.344.77.77.77"/></svg>
