<svg xmlns="http://www.w3.org/2000/svg" fill="none" viewBox="0 0 100 100"><path fill="#de4c36" d="M98.114 45.545 54.454 1.887a6.44 6.44 0 0 0-9.108 0l-9.066 9.066 11.5 11.501a7.65 7.65 0 0 1 7.869 1.833 7.66 7.66 0 0 1 1.817 7.917L68.55 43.288c2.682-.924 5.776-.326 7.918 1.82a7.66 7.66 0 0 1 0 10.835A7.662 7.662 0 0 1 63.96 47.61L53.623 37.272v27.202a7.663 7.663 0 0 1 2.026 12.288 7.66 7.66 0 0 1-10.836 0 7.663 7.663 0 0 1 2.508-12.51V36.795a7.6 7.6 0 0 1-2.508-1.672 7.66 7.66 0 0 1-1.651-8.378L31.824 15.408 1.887 45.343a6.44 6.44 0 0 0 0 9.11l43.661 43.66a6.44 6.44 0 0 0 9.108 0l43.458-43.457a6.444 6.444 0 0 0 0-9.11"/></svg>
