<svg xmlns="http://www.w3.org/2000/svg" fill="none" viewBox="0 0 100 100"><path fill="#f7df1e" d="M100 0H0v100.001h100z"/><path fill="#000" d="M67.175 78.126c2.014 3.289 4.635 5.706 9.27 5.706 3.893 0 6.38-1.945 6.38-4.634 0-3.223-2.555-4.364-6.84-6.238l-2.35-1.008c-6.781-2.89-11.286-6.508-11.286-14.16 0-7.047 5.37-12.412 13.762-12.412 5.975 0 10.27 2.08 13.365 7.524l-7.317 4.698c-1.611-2.888-3.35-4.027-6.048-4.027-2.752 0-4.497 1.746-4.497 4.027 0 2.82 1.746 3.96 5.778 5.707l2.35 1.006c7.983 3.424 12.491 6.914 12.491 14.762 0 8.46-6.646 13.095-15.571 13.095-8.727 0-14.365-4.159-17.124-9.61zm-33.196.814c1.477 2.62 2.82 4.834 6.048 4.834 3.087 0 5.035-1.208 5.035-5.905V45.917h9.397v32.079c0 9.73-5.705 14.159-14.032 14.159-7.524 0-11.881-3.894-14.097-8.584z"/></svg>
