<svg aria-hidden="true" class="size-4" viewBox="0 0 24 24"><path fill="currentColor" d="M21.418 1H2.584C1.634 1 1 1.628 1 2.572v18.855C1 22.373 1.792 23 2.583 23h18.834c.95 0 1.583-.628 1.583-1.572V2.573C23.001 1.627 22.367 1 21.418 1M7.49 19.7H4.166V9.172h3.323zM5.906 7.757c-1.108 0-1.898-.785-1.898-1.885S4.8 3.985 5.906 3.985c1.11 0 1.9.787 1.9 1.887s-.95 1.885-1.9 1.885M19.836 19.7h-3.324v-5.028c0-1.257 0-2.83-1.742-2.83-1.74 0-1.9 1.258-1.9 2.673V19.7H9.548V9.172h3.166v1.413c.633-1.1 1.9-1.728 3.165-1.728 3.325 0 3.957 2.2 3.957 5.028z"/></svg>
