<svg xmlns="http://www.w3.org/2000/svg" fill="none" viewBox="0 0 100 100"><path fill="#00546b" d="M92.11 77.067c-5.44-.138-9.657.415-13.194 1.933-1.02.414-2.653.415-2.789 1.727.544.552.612 1.45 1.089 2.209.817 1.38 2.244 3.244 3.536 4.211 1.428 1.105 2.857 2.209 4.353 3.176 2.652 1.657 5.645 2.623 8.23 4.28 1.497.966 2.992 2.21 4.488 3.245.749.551 1.224 1.45 2.177 1.795v-.207c-.477-.622-.613-1.52-1.088-2.21-.68-.69-1.36-1.311-2.04-2.002-1.973-2.692-4.421-5.04-7.074-6.972-2.176-1.52-6.938-3.59-7.821-6.145l-.136-.138c1.496-.138 3.264-.69 4.693-1.104 2.312-.622 4.42-.484 6.8-1.105 1.089-.276 2.177-.622 3.265-.967v-.62c-1.224-1.244-2.108-2.9-3.4-4.074-3.469-3.039-7.278-6.007-11.222-8.492-2.11-1.38-4.83-2.279-7.074-3.452-.816-.415-2.176-.621-2.652-1.312-1.225-1.518-1.905-3.52-2.789-5.315-1.972-3.798-3.877-8.009-5.577-12.013-1.224-2.693-1.972-5.385-3.469-7.87-7.005-11.737-14.622-18.848-26.32-25.821-2.517-1.45-5.51-2.071-8.706-2.83-1.7-.07-3.4-.207-5.1-.277-1.09-.483-2.178-1.795-3.13-2.416-3.876-2.486-13.874-7.87-16.73-.76-1.837 4.488 2.72 8.906 4.284 11.185 1.157 1.588 2.652 3.383 3.469 5.178.476 1.173.611 2.416 1.088 3.659 1.088 3.037 2.108 6.42 3.537 9.251.748 1.45 1.564 2.968 2.516 4.28.544.76 1.496 1.105 1.7 2.347-.951 1.381-1.02 3.453-1.564 5.178-2.449 7.802-1.496 17.467 1.972 23.197 1.088 1.725 3.673 5.524 7.142 4.073 3.06-1.242 2.38-5.177 3.264-8.63.205-.828.069-1.38.476-1.932v.138c.953 1.932 1.904 3.797 2.789 5.73 2.108 3.383 5.78 6.904 8.841 9.251 1.633 1.242 2.925 3.383 4.966 4.142v-.207h-.137c-.408-.622-1.02-.897-1.564-1.381-1.224-1.242-2.585-2.761-3.536-4.142-2.857-3.867-5.374-8.147-7.618-12.565-1.088-2.14-2.04-4.487-2.924-6.627-.409-.83-.409-2.072-1.089-2.486-1.02 1.519-2.516 2.83-3.264 4.695-1.292 2.968-1.428 6.627-1.904 10.424-.273.07-.137 0-.273.139-2.176-.553-2.924-2.831-3.74-4.764-2.041-4.902-2.381-12.772-.613-18.433.477-1.45 2.517-6.006 1.701-7.387-.408-1.312-1.769-2.072-2.517-3.107-.884-1.312-1.836-2.968-2.448-4.419-1.633-3.866-2.449-8.146-4.217-12.012-.816-1.796-2.244-3.659-3.4-5.316-1.293-1.864-2.721-3.176-3.741-5.385-.34-.76-.817-2.002-.272-2.83.136-.553.407-.76.952-.898.884-.76 3.4.207 4.284.621 2.517 1.035 4.625 2.002 6.734 3.452.952.69 1.972 2.002 3.196 2.348h1.429c2.176.482 4.624.138 6.665.759 3.605 1.173 6.87 2.9 9.794 4.764 8.91 5.73 16.255 13.876 21.22 23.61.816 1.588 1.156 3.038 1.904 4.695 1.429 3.383 3.197 6.835 4.625 10.149 1.428 3.244 2.788 6.558 4.829 9.251 1.02 1.45 5.1 2.21 6.937 2.969 1.36.62 3.47 1.173 4.693 1.933 2.312 1.449 4.625 3.107 6.801 4.694 1.089.828 4.489 2.554 4.693 3.935"/><path fill="#00546b" d="M22.737 17.073c-1.156 0-1.972.138-2.788.345v.138h.136c.544 1.105 1.496 1.864 2.175 2.83.545 1.105 1.02 2.21 1.565 3.315l.136-.138c.953-.691 1.428-1.795 1.428-3.453-.408-.482-.476-.966-.816-1.449-.407-.69-1.292-1.036-1.836-1.588"/></svg>
