<svg xmlns="http://www.w3.org/2000/svg" fill="none" viewBox="0 0 100 100"><path fill="#8cc84b" d="M46.279 1.068c2.479-1.42 5.709-1.426 8.186 0 12.464 7.042 24.931 14.074 37.393 21.12 2.343 1.32 3.911 3.93 3.887 6.63v42.37c.018 2.813-1.705 5.484-4.178 6.775-12.422 7.003-24.838 14.016-37.259 21.02-2.53 1.446-5.825 1.335-8.277-.23-3.724-2.16-7.455-4.308-11.18-6.465-.76-.454-1.619-.815-2.156-1.553.475-.64 1.324-.72 2.015-1 1.554-.494 2.982-1.287 4.41-2.057.361-.248.802-.153 1.148.069 3.185 1.826 6.342 3.704 9.537 5.513.682.394 1.372-.129 1.955-.454 12.19-6.89 24.396-13.753 36.584-20.645a1.21 1.21 0 0 0 .664-1.192c.009-13.977.002-27.956.005-41.934a1.31 1.31 0 0 0-.781-1.307c-12.38-6.972-24.753-13.954-37.13-20.927a1.29 1.29 0 0 0-1.458-.003c-12.378 6.976-24.749 13.965-37.126 20.936-.506.23-.845.738-.785 1.301q.002 20.967 0 41.937a1.19 1.19 0 0 0 .673 1.176c3.303 1.873 6.61 3.733 9.916 5.6 1.861 1.002 4.148 1.597 6.199.83 1.81-.65 3.08-2.497 3.045-4.42.017-13.895-.009-27.793.013-41.687-.046-.616.54-1.126 1.14-1.068 1.586-.01 3.175-.021 4.762.004.663-.015 1.119.65 1.037 1.271-.007 13.984.017 27.968-.01 41.951.003 3.727-1.528 7.782-4.975 9.606-4.247 2.2-9.496 1.733-13.691-.376-3.632-1.813-7.098-3.953-10.666-5.895C6.697 76.681 4.983 74 5 71.19V28.818c-.026-2.757 1.604-5.413 4.021-6.713 12.42-7.01 24.84-14.025 37.258-21.037"/><path fill="#8cc84b" d="M57.114 30.418c5.417-.348 11.216-.206 16.091 2.462 3.774 2.045 5.867 6.337 5.933 10.53-.105.566-.696.878-1.236.839-1.572-.002-3.144.021-4.716-.01-.667.025-1.054-.59-1.138-1.18-.451-2.005-1.545-3.992-3.434-4.96-2.898-1.451-6.26-1.378-9.42-1.348-2.308.122-4.79.322-6.744 1.68-1.5 1.027-1.957 3.102-1.421 4.773.505 1.2 1.89 1.587 3.023 1.944 6.529 1.707 13.447 1.537 19.85 3.784 2.651.916 5.245 2.697 6.152 5.473 1.187 3.72.667 8.167-1.98 11.154-2.146 2.458-5.273 3.796-8.39 4.522-4.149.925-8.454.949-12.666.538-3.962-.452-8.084-1.492-11.142-4.191-2.614-2.27-3.892-5.808-3.765-9.223.03-.576.605-.979 1.157-.931 1.583-.013 3.165-.017 4.748.002.632-.045 1.101.501 1.133 1.097.292 1.911 1.01 3.918 2.678 5.05 3.216 2.076 7.253 1.934 10.936 1.992 3.052-.135 6.477-.176 8.967-2.193 1.314-1.15 1.703-3.075 1.348-4.73-.384-1.399-1.847-2.05-3.103-2.476-6.444-2.039-13.44-1.299-19.822-3.604-2.59-.916-5.096-2.647-6.092-5.31-1.389-3.767-.752-8.426 2.172-11.312 2.852-2.871 6.968-3.976 10.881-4.372"/></svg>
