<svg xmlns="http://www.w3.org/2000/svg" fill="none" viewBox="0 0 128 128"><path fill="#ff4438" d="M113.983 68.966c-7.747 9.067-16.114 19.43-32.848 19.43-14.948 0-20.516-12.247-20.908-22.196 3.275 6.433 9.678 11.642 19.668 11.401 19.214-.576 32.384-16.695 32.384-31.376 0-17.56-14.1-30.225-38.582-30.225-17.509 0-39.201 6.189-53.456 15.976-.155 10.075 5.888 23.172 8.057 21.733 12.358-8.254 22.158-13.567 31.663-16.23C45.89 52.051 12.133 85.892 8 91.85 8.465 97.32 15.747 112 19.311 112c1.085 0 2.014-.576 3.1-1.583 10.176-10.622 18.472-20.145 25.852-29.324 1.036 13.453 8.158 29.9 28.069 29.9 17.818 0 35.482-11.947 43.539-38.861.931-3.31-3.409-5.901-5.888-3.166M93.686 47.232c0 8.492-8.988 12.666-17.2 12.666-4.39 0-7.761-1.07-10.428-2.462 4.907-6.902 9.764-13.979 14.983-21.555 9.201 1.447 12.645 6.198 12.645 11.351"/></svg>
