<svg xmlns="http://www.w3.org/2000/svg" fill="currentColor" xml:space="preserve" viewBox="0 0 27.782 27.782"><path d="M13.845.003a.4.4 0 0 0-.295.19l-.706 1.177q-.186.014-.37.035L11.553.39a.397.397 0 0 0-.669.132l-.463 1.292q-.18.052-.356.107l-1.101-.816a.397.397 0 0 0-.63.26l-.202 1.363q-.163.083-.324.172l-1.244-.588a.397.397 0 0 0-.566.378l.067 1.38q-.14.112-.28.229l-1.339-.335a.397.397 0 0 0-.482.482l.335 1.34a13 13 0 0 0-.23.279l-1.378-.067a.397.397 0 0 0-.379.565L2.9 7.808q-.089.16-.172.323l-1.362.203a.397.397 0 0 0-.26.63l.816 1.1q-.057.178-.107.357l-1.292.463a.397.397 0 0 0-.133.668l1.015.922q-.019.183-.035.37l-1.177.706a.397.397 0 0 0 0 .681l1.177.707q.015.185.035.37l-1.015.921a.397.397 0 0 0 .133.668l1.292.463q.05.18.107.357l-.816 1.101a.397.397 0 0 0 .26.63l1.362.202q.084.163.172.324l-.588 1.244a.397.397 0 0 0 .379.566l1.379-.067q.112.14.23.28l-.336 1.339a.397.397 0 0 0 .482.481l1.34-.335q.138.116.279.23l-.067 1.379a.397.397 0 0 0 .566.378l1.244-.587q.16.088.324.172l.202 1.361a.397.397 0 0 0 .63.26l1.1-.815q.178.057.357.107l.463 1.292a.397.397 0 0 0 .669.133l.92-1.016q.186.02.37.035l.707 1.178a.397.397 0 0 0 .681 0l.707-1.178q.186-.014.37-.035l.921 1.016a.397.397 0 0 0 .668-.133l.463-1.292q.18-.051.357-.107l1.101.816a.397.397 0 0 0 .63-.26l.202-1.362q.163-.084.324-.172l1.244.587a.397.397 0 0 0 .566-.378l-.067-1.38q.14-.111.28-.229l1.339.335a.397.397 0 0 0 .481-.481l-.334-1.34q.116-.138.229-.28l1.38.068a.397.397 0 0 0 .378-.566l-.588-1.244q.089-.16.172-.324l1.362-.203a.397.397 0 0 0 .26-.629l-.816-1.101q.056-.177.107-.357l1.292-.463a.397.397 0 0 0 .133-.668l-1.016-.921q.02-.185.036-.37l1.177-.707a.397.397 0 0 0 0-.68l-1.177-.707q-.015-.187-.036-.37l1.016-.922a.397.397 0 0 0-.133-.668l-1.292-.463q-.05-.18-.107-.356l.816-1.102a.397.397 0 0 0-.26-.63l-1.362-.202a13 13 0 0 0-.172-.323l.588-1.245a.397.397 0 0 0-.379-.565l-1.379.067a13 13 0 0 0-.23-.28l.335-1.34a.397.397 0 0 0-.481-.48l-1.34.334a13 13 0 0 0-.28-.23l.068-1.379a.397.397 0 0 0-.566-.378l-1.244.588q-.16-.089-.324-.172l-.202-1.362a.397.397 0 0 0-.63-.26l-1.101.815a13 13 0 0 0-.357-.107L16.897.522A.397.397 0 0 0 16.23.39l-.921 1.015a13 13 0 0 0-.37-.035L14.23.193a.4.4 0 0 0-.386-.19m.046 2.51a.794.794 0 0 1 .794.794.794.794 0 0 1-.794.794.794.794 0 0 1-.794-.794.794.794 0 0 1 .794-.793m-1.875 1.365L13.33 5.19a.794.794 0 0 0 1.122 0l1.314-1.313c3.059.566 5.632 2.49 7.072 5.129l-.847 1.662a.794.794 0 0 0 .347 1.067l1.653.843q.084.645.086 1.312-.002.4-.033.793h-1.025a.13.13 0 0 0-.132.133v.529c0 .501-.154.843-.376 1.069s-.52.338-.822.353a1.33 1.33 0 0 1-.825-.227.8.8 0 0 1-.359-.666l-.002-.026c-.138-.688-.478-1.298-.819-1.741a3.6 3.6 0 0 0-.49-.529c-.055-.046-.103-.078-.153-.11.878-.519 1.465-1.14 1.74-1.81.299-.727.272-1.492.014-2.18-.517-1.378-1.95-2.467-3.597-2.467H6.368a10.15 10.15 0 0 1 5.648-3.134M3.848 9.827a.8.8 0 0 1 .223.039.794.794 0 0 1 .51 1 .794.794 0 0 1-1 .51.794.794 0 0 1-.51-1 .794.794 0 0 1 .777-.55m20.086 0a.794.794 0 0 1 .777.548.794.794 0 0 1-.51 1 .794.794 0 0 1-1-.51.794.794 0 0 1 .51-1 .8.8 0 0 1 .223-.038m-18.389.36h1.731V16.8h-3.15a10.2 10.2 0 0 1-.335-4.222l1.653-.843a.794.794 0 0 0 .347-1.067zm6.23 0h3.307c.507 0 .874.127 1.11.304s.345.401.345.622-.108.444-.344.621c-.237.177-.604.305-1.111.305h-3.308zm0 4.762h2.513c.693 0 1.085.253 1.363.654s.426.965.558 1.558c.132.592.247 1.211.489 1.73s.628.94 1.265 1.082l.029.003h4.077q-.36.48-.77.914l-1.841-.291a.794.794 0 0 0-.908.66l-.292 1.84a10.2 10.2 0 0 1-4.367.978c-1.565 0-3.045-.35-4.367-.977l-.292-1.842a.794.794 0 0 0-.908-.66l-1.84.292q-.412-.434-.77-.914h8.31a.13.13 0 0 0 .131-.132v-2.91a.13.13 0 0 0-.132-.133h-2.249zm-4.06 6.711a.8.8 0 0 1 .422.15.794.794 0 0 1 .175 1.11.794.794 0 0 1-1.109.175.794.794 0 0 1-.175-1.109.8.8 0 0 1 .688-.326m12.351 0a.8.8 0 0 1 .688.326.794.794 0 0 1-.176 1.109.794.794 0 0 1-1.109-.175.794.794 0 0 1 .176-1.11.8.8 0 0 1 .421-.15"/></svg>
