<svg xmlns="http://www.w3.org/2000/svg" fill="currentColor" viewBox="0 0 663 660">
  <path d="M306.092.624C314.81-.52 324.02.26 332.805.26c32.549 0 64.506 5.053 95.648 14.631 39.745 12.224 76.763 31.767 109.436 57.478 40.047 31.513 73.23 72.847 94.521 119.236 39.836 86.79 39.544 191.973-1.268 278.398-26.389 55.88-68.724 102.65-119.965 136.757-41.81 27.829-90.707 44.863-140.457 50.894-63.326 7.677-131.785-3.542-188.713-32.73C75.138 570.128 2.484 459.847 1.047 338.991c-.277-23.301.086-46.74 4.699-69.815 7.513-37.579 20.613-73.904 40.286-106.877 21.281-35.67 48.77-67.148 81.688-92.526 38.603-29.76 83.468-51.167 130.979-62.058 11.473-2.63 22.994-4.087 34.572-5.496l3.659-.445c3.05-.371 6.104-.748 9.162-1.15M195.536 550.066c-14.716 1.578-30.239 4.256-42.87 12.522 2.844.684 6.103.005 9.069 0 7.125-.012 14.318-.28 21.435.032 17.817.782 36.382 3.632 53.587 8.35 22.03 6.04 41.433 17.929 62.656 25.945C321.803 605.372 344.09 608 367.84 608c11.969 0 23.846-.036 35.45-3.303-6.056-3.225-14.725-2.62-21.434-3.963-14.557-2.915-28.87-6.475-42.87-11.47-10.305-3.677-20.231-8.214-30.111-12.849l-6.349-2.985c-9.17-4.31-18.363-8.56-27.845-12.143-24.932-9.418-52.56-14.071-79.145-11.221m22.26-62.614c-29.164 0-58.66 5.137-84.916 18.37-6.361 3.205-12.407 7.025-18.137 11.258-1.746 1.29-4.842 2.949-5.487 5.192-.655 2.275 1.686 4.182 3.014 5.638 6.562-3.498 12.797-7.2 19.786-9.856 45.199-17.17 99.992-13.57 145.098 2.173 22.494 7.851 43.22 19.592 65.13 28.8 24.503 10.298 49.53 16.975 75.846 20.4 31.042 4.037 66.434.765 94.809-13.243 9.97-4.922 23.814-12.422 28.03-23.32-5.207.455-9.892 2.686-14.84 4.224-7.866 2.445-15.827 4.52-23.908 6.139-27.388 5.486-56.512 6.62-84.09 1.64-25.993-4.694-50.143-14.12-74.18-24.036l-3.068-1.268q-3.068-1.271-6.136-2.544l-3.07-1.273c-12.28-5.085-24.606-10.11-37.21-14.51-24.485-8.546-50.727-13.784-76.671-13.784M268.91 39.46c-34.96 7.722-66.277 22.76-96.458 41.718-17.521 11.005-34.281 22.28-49.465 36.444-22.58 21.066-39.836 46.669-54.887 73.412-15.507 27.553-25.45 59.665-30.255 90.824-4.714 30.568-5.49 62.707-.09 93.3 6.75 38.25 19.598 74.141 39.889 107.339 6.819-3.185 11.66-10.446 17.313-15.337 11.415-9.876 23.4-19.03 36.274-26.929 4.766-2.924 9.663-5.194 14.84-7.275 1.953-.785 5.146-1.503 6.065-3.648 1.461-3.406-1.24-9.336-1.705-12.865-1.325-10.096-2.124-20.363-1.874-30.55.725-29.67 6.27-59.752 16.825-87.522 7.955-20.924 20.107-39.922 34.503-56.971 4.885-5.786 10.078-11.17 15.437-16.513 3.168-3.157 7.099-5.859 9.069-9.909-10.337.007-20.675 2.987-30.504 6.014-21.174 6.519-41.801 16.193-59.358 29.841-8.008 6.226-13.873 14.387-21.447 20.94-2.323 2.01-6.485 4.705-9.695 3.188-4.85-2.29-4.102-11.835-4.658-16.222-2.137-16.874 4.255-38.216 12.378-52.843 13.04-23.48 37.151-43.529 65.468-42.829 12.228.302 22.934 4.551 34.625 7.325-2.964-4.212-6.939-7.282-10.717-10.734-9.258-8.46-19.383-16.185-30.504-22.029-4.474-2.35-9.291-3.78-14.015-5.506-2.375-.868-5.366-2.063-6.26-4.703-1.654-4.888 7.149-9.416 10.382-11.478 12.5-7.97 27.827-14.525 42.87-14.895 23.51-.577 46.48 12.468 56.163 34.666 3.404 7.804 4.411 16.055 5.08 24.383l.12 1.563.175 2.345.058.782.116 1.565.12 1.564c7.383-6.02 12.576-14.877 19.786-21.324 16.86-15.079 39.936-21.772 61.831-14.984 19.787 6.133 36.985 19.788 47.106 37.96 2.648 4.753 10.036 16.373 4.699 21.108-4.178 3.708-9.475.818-13.881-.719-3.336-1.164-6.783-1.902-10.242-2.586L372.2 187q-.945-.183-1.886-.371c-11.98-2.402-25.917-2.153-37.924-.042-7.762 1.365-15.349 4.128-23.084 5.272v1.652c21.15.175 41.609 12.24 52.044 30.55 4.323 7.585 6.482 16.267 8.138 24.77 2.048 10.509.609 21.959-2.263 32.201-.963 3.434-2.71 9.256-6.817 10.047-2.903.559-5.368-2.331-7.025-4.28-4.344-5.107-8.476-9.963-13.573-14.374-12.896-11.157-26.53-21.45-40.397-31.373-7.362-5.27-15.425-12.12-23.908-15.34 2.385 5.745 4.722 11.086 5.533 17.34 2.386 18.392-5.314 35.704-16.872 49.54-3.527 4.222-7.3 8.475-11.745 11.755-1.843 1.361-4.156 3.138-6.595 2.753-7.646-1.208-8.556-12.732-9.728-18.637-3.97-19.999-2.376-39.86 3.133-59.448-4.902 2.485-8.444 7.924-11.522 12.385-6.77 9.816-12.645 20.199-16.858 31.375-16.778 44.52-16.617 96.664 5.119 139.524 2.427 4.786 6.11 4.144 10.894 4.144q1.082-.001 2.165-.011l2.168-.023c4.339-.045 8.687-.064 12.98.51 2.228.296 5.321.031 7.084 1.673 2.112 1.967.986 5.339.5 7.759-1.359 6.765-1.813 12.914-1.813 19.816 9.024-1.399 11.526-15.866 14.724-23.119 3.625-8.216 7.314-16.44 10.667-24.77 1.65-4.094 3.855-8.671 3.276-13.211-.65-5.102-4.336-10.51-6.905-14.862-4.862-8.235-10.389-16.708-13.969-25.596-2.861-7.105-.197-15.983 7.872-18.522 4.45-1.4 9.198 1.346 12.094 4.563 6.073 6.743 9.993 16.778 14.402 24.693l34.395 61.925c2.92 5.244 5.848 10.482 8.837 15.688 1.166 2.031 2.352 5.167 4.74 6.033 2.127.771 5.033-.325 7.149-.749 5.492-1.1 10.976-2.287 16.488-3.282 6.606-1.194 16.674-.97 21.435-6.13-6.963-2.206-15.012-2.075-22.26-1.578-4.352.299-9.177 1.856-13.178-.686-5.953-3.784-9.91-12.522-13.552-18.378-8.98-14.44-17.442-29.096-26.041-43.76l-1.376-2.336-2.766-4.665a379 379 0 0 1-4.08-7.036c-1.027-1.827-2.55-4.234-1.078-6.247 1.545-2.115 4.914-2.24 7.956-2.243h.603c1.196.001 2.316.002 3.223-.117 12.274-1.615 24.719-2.953 37.1-2.953-.965-3.352-3.72-7.141-2.84-10.73 1.973-8.03 13.527-10.543 18.9-4.78 3.608 3.867 5.705 9.191 8.052 13.859 3.097 6.162 6.624 12.118 9.94 18.165 5.806 10.586 12.147 20.881 18.117 31.375.493.866 1 1.727 1.513 2.587l.771 1.291c2.577 4.303 5.165 8.635 6.553 13.462-20.736-.95-36.301-25.02-45.343-41.284-.721 2.604.451 4.928 1.388 7.43 1.949 5.198 4.277 10.148 7.207 14.863 4.184 6.733 8.982 13.666 15.313 18.554 11.236 8.673 26.053 8.721 39.573 7.794 8.67-.595 19.502-4.542 28.03-1.864 8.514 2.673 11.94 12.063 6.885 19.276-3.788 5.403-8.843 7.443-15.13 8.257 4.446 9.536 10.27 18.386 14.49 28.073 1.76 4.036 3.592 10.221 7.806 12.35 2.805 1.418 6.824.098 9.857.035-3.044-8.053-8.743-14.887-11.542-23.118 8.534.39 16.787 4.843 24.733 7.685 15.63 5.59 31.064 11.702 46.475 17.87l7.112 2.848c6.34 2.539 12.716 5.052 18.962 7.812 2.285 1.01 5.45 3.37 7.975 1.918 2.062-1.187 3.395-4.016 4.666-5.932 3.556-5.362 6.776-10.929 9.965-16.514 12.775-22.365 22.144-46.872 28.403-71.833 20.646-82.323 2.935-173.156-46.677-241.923-19.061-26.42-43.033-49.262-69.461-68.178C435.257 40.84 348.485 21.884 268.91 39.46m135.205 410.53c-17.533 4.57-35.602 8.714-53.587 11.04 2.365 8.053 8.145 15.886 12.376 23.119 1.635 2.796 3.386 6.542 6.618 7.755 3.652 1.371 8.064-.853 11.51-1.975-1.596-4.365-4.28-8.293-6.478-12.386-.905-1.687-2.305-3.685-1.56-5.69 1.411-3.786 7.267-3.563 10.51-4.22 8.547-1.735 17.005-3.899 25.557-5.612 3.151-.632 7.539-2.343 10.706-1.286 2.37.791 3.8 2.745 5.152 4.782l.606.919c.81 1.223 1.637 2.417 2.671 3.351 3.458 3.122 8.629 3.602 13.018 4.454-2.679-6.028-7.13-11.301-9.985-17.34-1.66-3.51-3.023-8.677-6.656-10.707-5.005-2.795-15.342 2.462-20.458 3.796m-110.473-40.152c-.825 10.468-4.036 18.985-9.068 28.073 5.767.73 11.649.99 17.313 2.394 4.245 1.052 8.156 3.058 12.366 4.212-2.25-6.158-6.426-11.652-9.661-17.34-3.267-5.74-6.19-12.717-10.95-17.339"/>
</svg>
