<svg xmlns="http://www.w3.org/2000/svg" fill="none" viewBox="0 0 100 100"><path fill="#017acb" d="M0 0h100v100.001H0z"/><path fill="#fff" d="M48.016 37.032h4.797v8.281h-12.97v36.844l-.343.094c-.469.125-6.64.125-7.969-.016l-1.062-.094V45.313H17.5v-8.281l4.11-.047c2.25-.031 8.03-.031 12.843 0s10.906.047 13.563.047m36.61 41.219c-1.907 2.015-3.954 3.14-7.36 4.062-1.485.406-1.735.422-5.078.406s-3.61-.015-5.235-.437c-4.203-1.078-7.594-3.187-9.906-6.172-.656-.844-1.734-2.594-1.734-2.812 0-.063.156-.204.359-.297.203-.094.625-.36.969-.563s.968-.578 1.39-.797c.422-.218 1.64-.937 2.703-1.578 1.063-.64 2.032-1.156 2.141-1.156.11 0 .313.219.469.484.937 1.578 3.125 3.594 4.672 4.282.953.406 3.062.859 4.078.859.937 0 2.656-.406 3.578-.828.984-.453 1.484-.906 2.078-1.813.406-.64.453-.812.438-2.03 0-1.126-.063-1.438-.375-1.954-.875-1.437-2.063-2.187-6.875-4.312-4.97-2.204-7.204-3.516-9.016-5.282-1.344-1.312-1.61-1.672-2.453-3.312-1.094-2.11-1.235-2.797-1.25-5.938-.016-2.203.031-2.922.265-3.672.329-1.125 1.391-3.297 1.875-3.843 1-1.172 1.36-1.532 2.063-2.11 2.125-1.75 5.438-2.906 8.61-3.015.359 0 1.546.062 2.656.14 3.187.266 5.359 1.047 7.453 2.719 1.578 1.25 3.968 4.188 3.734 4.578-.156.234-6.39 4.39-6.797 4.516-.25.078-.422-.016-.765-.422-2.125-2.547-2.985-3.094-5.047-3.219-1.469-.094-2.25.078-3.235.734-1.03.688-1.53 1.735-1.53 3.188.015 2.125.827 3.125 3.827 4.61 1.938.952 3.594 1.734 3.719 1.734.188 0 4.203 2 5.25 2.625 4.875 2.86 6.86 5.797 7.375 10.86.375 3.812-.703 7.296-3.047 9.765"/></svg>
